<?xml version="1.0" encoding="UTF-8" standalone="no"?>
<!-- Created with Inkscape (http://www.inkscape.org/) -->

<svg
   xmlns:dc="http://purl.org/dc/elements/1.1/"
   xmlns:cc="http://creativecommons.org/ns#"
   xmlns:rdf="http://www.w3.org/1999/02/22-rdf-syntax-ns#"
   xmlns:svg="http://www.w3.org/2000/svg"
   xmlns="http://www.w3.org/2000/svg"
   xmlns:sodipodi="http://sodipodi.sourceforge.net/DTD/sodipodi-0.dtd"
   xmlns:inkscape="http://www.inkscape.org/namespaces/inkscape"
   version="1.1"
   id="svg2"
   xml:space="preserve"
   width="666.66669"
   height="666.66669"
   viewBox="0 0 666.66669 666.66669"
   sodipodi:docname="main.svg"
   inkscape:version="0.92.4 (5da689c313, 2019-01-14)"><metadata
     id="metadata8"><rdf:RDF><cc:Work
         rdf:about=""><dc:format>image/svg+xml</dc:format><dc:type
           rdf:resource="http://purl.org/dc/dcmitype/StillImage" /><dc:title></dc:title></cc:Work></rdf:RDF></metadata><defs
     id="defs6"><clipPath
       clipPathUnits="userSpaceOnUse"
       id="clipPath20"><path
         d="M 0,500 H 500 V 0 H 0 Z"
         id="path18"
         inkscape:connector-curvature="0" /></clipPath><clipPath
       clipPathUnits="userSpaceOnUse"
       id="clipPath28"><path
         d="M 53.6155,452.661 H 316.031 V 145.795 H 53.6155 Z"
         id="path26"
         inkscape:connector-curvature="0" /></clipPath><clipPath
       clipPathUnits="userSpaceOnUse"
       id="clipPath44"><path
         d="M 303.463,316.704 H 476.415 V 96.2328 H 303.463 Z"
         id="path42"
         inkscape:connector-curvature="0" /></clipPath><clipPath
       clipPathUnits="userSpaceOnUse"
       id="clipPath60"><path
         d="M 28.7873,87.2017 H 470.858 V 62.233 H 28.7873 Z"
         id="path58"
         inkscape:connector-curvature="0" /></clipPath><clipPath
       clipPathUnits="userSpaceOnUse"
       id="clipPath78"><path
         d="M 0,500 H 500 V 0 H 0 Z"
         id="path76"
         inkscape:connector-curvature="0" /></clipPath><clipPath
       clipPathUnits="userSpaceOnUse"
       id="clipPath86"><path
         d="M 204.82,374.387 H 414.713 V 88.5579 H 204.82 Z"
         id="path84"
         inkscape:connector-curvature="0" /></clipPath><clipPath
       clipPathUnits="userSpaceOnUse"
       id="clipPath118"><path
         d="M 0,500 H 500 V 0 H 0 Z"
         id="path116"
         inkscape:connector-curvature="0" /></clipPath><clipPath
       clipPathUnits="userSpaceOnUse"
       id="clipPath130"><path
         d="M 270.743,376.033 H 348.79 V 369.01 H 270.743 Z"
         id="path128"
         inkscape:connector-curvature="0" /></clipPath><clipPath
       clipPathUnits="userSpaceOnUse"
       id="clipPath146"><path
         d="m 268.619,371.904 h 82.294 v 27.665 h -82.294 z"
         id="path144"
         inkscape:connector-curvature="0" /></clipPath><clipPath
       clipPathUnits="userSpaceOnUse"
       id="clipPath154"><path
         d="M 260.398,384.369 H 361.32 V 368.51 H 260.398 Z"
         id="path152"
         inkscape:connector-curvature="0" /></clipPath><clipPath
       clipPathUnits="userSpaceOnUse"
       id="clipPath168"><path
         d="M 0,500 H 500 V 0 H 0 Z"
         id="path166"
         inkscape:connector-curvature="0" /></clipPath><clipPath
       clipPathUnits="userSpaceOnUse"
       id="clipPath246"><path
         d="m 67.668,91.78 -1.961,-9.702 c 0,0 -12.368,-2.686 -13.114,-5.522 v 0 C 51.846,73.72 78.564,75.66 78.564,75.66 v 0 L 81.4,91.78 Z"
         id="path244"
         inkscape:connector-curvature="0" /></clipPath><clipPath
       clipPathUnits="userSpaceOnUse"
       id="clipPath254"><path
         d="M 62.4645,101.589 H 87.8881 V 85.7446 H 62.4645 Z"
         id="path252"
         inkscape:connector-curvature="0" /></clipPath><clipPath
       clipPathUnits="userSpaceOnUse"
       id="clipPath270"><path
         d="M 0,500 H 500 V 0 H 0 Z"
         id="path268"
         inkscape:connector-curvature="0" /></clipPath><clipPath
       clipPathUnits="userSpaceOnUse"
       id="clipPath282"><path
         d="m 121.104,91.78 0.566,-16.12 c 0,0 26.717,-1.94 25.971,0.896 v 0 c -0.746,2.836 -13.114,5.522 -13.114,5.522 v 0 l 0.309,9.702 z"
         id="path280"
         inkscape:connector-curvature="0" /></clipPath><clipPath
       clipPathUnits="userSpaceOnUse"
       id="clipPath290"><path
         d="m 115.979,101.587 h 23.046 V 84.8578 h -23.046 z"
         id="path288"
         inkscape:connector-curvature="0" /></clipPath><clipPath
       clipPathUnits="userSpaceOnUse"
       id="clipPath306"><path
         d="M 0,500 H 500 V 0 H 0 Z"
         id="path304"
         inkscape:connector-curvature="0" /></clipPath><clipPath
       clipPathUnits="userSpaceOnUse"
       id="clipPath326"><path
         d="m 65.707,89.947 c 13.238,-1.455 16.022,-0.568 16.022,-0.568 v 0 l 24.582,88.217 h 10.793 c 0.795,-0.852 3.229,-88.217 3.229,-88.217 v 0 c 0,0 11.106,-1.643 15.48,0.626 v 0 c 0,0 4.996,67.238 6.339,103.698 v 0 L 84.608,205.28 c 0,0 -12.74,-72.155 -18.901,-115.333"
         id="path324"
         inkscape:connector-curvature="0" /></clipPath><clipPath
       clipPathUnits="userSpaceOnUse"
       id="clipPath334"><path
         d="M 59.0823,216.515 H 182.857 V 185.383 H 59.0823 Z"
         id="path332"
         inkscape:connector-curvature="0" /></clipPath><clipPath
       clipPathUnits="userSpaceOnUse"
       id="clipPath350"><path
         d="M 0,500 H 500 V 0 H 0 Z"
         id="path348"
         inkscape:connector-curvature="0" /></clipPath><clipPath
       clipPathUnits="userSpaceOnUse"
       id="clipPath362"><path
         d="M 101.971,275.11 C 98.095,271.364 89.819,245.903 84.608,205.28 v 0 c 20.804,-21.938 57.544,-11.577 57.544,-11.577 v 0 c 0,0 1.869,74.016 -0.104,77.741 v 0 c -3.773,7.118 -22.235,8.209 -22.235,8.209 v 0 c 0,0 -13.967,-0.798 -17.842,-4.543"
         id="path360"
         inkscape:connector-curvature="0" /></clipPath><clipPath
       clipPathUnits="userSpaceOnUse"
       id="clipPath370"><path
         d="M 78.8904,233.839 H 156.403 V 204.292 H 78.8904 Z"
         id="path368"
         inkscape:connector-curvature="0" /></clipPath><clipPath
       clipPathUnits="userSpaceOnUse"
       id="clipPath386"><path
         d="M 0,500 H 500 V 0 H 0 Z"
         id="path384"
         inkscape:connector-curvature="0" /></clipPath><clipPath
       clipPathUnits="userSpaceOnUse"
       id="clipPath398"><path
         d="m 31.487,219.36 c -3.919,-1.124 -6.186,-5.213 -5.063,-9.133 v 0 l 2.614,-9.117 c 1.124,-3.92 5.212,-6.186 9.133,-5.062 v 0 l 130.988,37.552 -6.683,23.31 z"
         id="path396"
         inkscape:connector-curvature="0" /></clipPath><clipPath
       clipPathUnits="userSpaceOnUse"
       id="clipPath406"><path
         d="m 140.308,267.138 h 18.407 v -50.313 h -18.407 z"
         id="path404"
         inkscape:connector-curvature="0" /></clipPath><clipPath
       clipPathUnits="userSpaceOnUse"
       id="clipPath422"><path
         d="M 34.2923,236.745 H 52.6995 V 186.433 H 34.2923 Z"
         id="path420"
         inkscape:connector-curvature="0" /></clipPath><clipPath
       clipPathUnits="userSpaceOnUse"
       id="clipPath442"><path
         d="M 19.4914,244.906 H 189.729 V 174.492 H 19.4914 Z"
         id="path440"
         inkscape:connector-curvature="0" /></clipPath><clipPath
       clipPathUnits="userSpaceOnUse"
       id="clipPath458"><path
         d="M 9.68755,279.104 H 179.925 V 208.69 H 9.68755 Z"
         id="path456"
         inkscape:connector-curvature="0" /></clipPath><clipPath
       clipPathUnits="userSpaceOnUse"
       id="clipPath474"><path
         d="M 0,500 H 500 V 0 H 0 Z"
         id="path472"
         inkscape:connector-curvature="0" /></clipPath><clipPath
       clipPathUnits="userSpaceOnUse"
       id="clipPath486"><path
         d="m 169.159,233.6 15.849,17.157 -22.532,6.153 z"
         id="path484"
         inkscape:connector-curvature="0" /></clipPath><clipPath
       clipPathUnits="userSpaceOnUse"
       id="clipPath498"><path
         d="M 0,500 H 500 V 0 H 0 Z"
         id="path496"
         inkscape:connector-curvature="0" /></clipPath><clipPath
       clipPathUnits="userSpaceOnUse"
       id="clipPath526"><path
         d="m 112.18,275.875 10.811,-9.203 9.007,9.203 v 13.548 l -22.562,7.472 z"
         id="path524"
         inkscape:connector-curvature="0" /></clipPath><clipPath
       clipPathUnits="userSpaceOnUse"
       id="clipPath534"><path
         d="m 111.517,307.212 h 24.761 v -26.863 h -24.761 z"
         id="path532"
         inkscape:connector-curvature="0" /></clipPath><clipPath
       clipPathUnits="userSpaceOnUse"
       id="clipPath550"><path
         d="M 0,500 H 500 V 0 H 0 Z"
         id="path548"
         inkscape:connector-curvature="0" /></clipPath><clipPath
       clipPathUnits="userSpaceOnUse"
       id="clipPath666"><path
         d="M 0,500 H 500 V 0 H 0 Z"
         id="path664"
         inkscape:connector-curvature="0" /></clipPath></defs><sodipodi:namedview
     pagecolor="#ffffff"
     bordercolor="#666666"
     borderopacity="1"
     objecttolerance="10"
     gridtolerance="10"
     guidetolerance="10"
     inkscape:pageopacity="0"
     inkscape:pageshadow="2"
     inkscape:window-width="1426"
     inkscape:window-height="818"
     id="namedview4"
     showgrid="false"
     inkscape:zoom="0.35399999"
     inkscape:cx="333.33334"
     inkscape:cy="333.33334"
     inkscape:window-x="0"
     inkscape:window-y="27"
     inkscape:window-maximized="0"
     inkscape:current-layer="g10" /><g
     id="g10"
     inkscape:groupmode="layer"
     inkscape:label="2066457"
     transform="matrix(1.3333333,0,0,-1.3333333,0,666.66667)"><g
       id="g14"><g
         id="g16"
         clip-path="url(#clipPath20)"><g
           id="g22"><g
             id="g24" /><g
             id="g36"><g
               clip-path="url(#clipPath28)"
               id="g34"
               style="opacity:0.30000299"><g
                 transform="translate(315.607,386.3628)"
                 id="g32"><path
                   d="m 0,0 c -14.99,-2.829 -30.26,3.06 -43.563,10.526 -18.514,10.394 -35.039,23.969 -53.018,35.264 -17.979,11.295 -38.183,20.469 -59.415,20.509 -21.233,0.039 -43.508,-10.882 -51.877,-30.396 -8.874,-20.692 -0.638,-44.726 -4.481,-66.91 -6.23,-35.973 -42.688,-61.001 -48.768,-97.001 -3.481,-20.616 3.85,-41.868 15.525,-59.213 24.844,-36.907 71.253,-58.848 115.236,-52.149 27.992,4.264 53.51,19.123 74.756,37.841 21.247,18.717 38.708,41.267 56.029,63.666"
                   style="fill:#abd5e6;fill-opacity:1;fill-rule:nonzero;stroke:none"
                   id="path30"
                   inkscape:connector-curvature="0" /></g></g></g></g><g
           id="g38"><g
             id="g40" /><g
             id="g52"><g
               clip-path="url(#clipPath44)"
               id="g50"
               style="opacity:0.30000299"><g
                 transform="translate(328.4034,126.9531)"
                 id="g48"><path
                   d="m 0,0 c -5.249,6.241 -10.097,12.82 -14.503,19.682 -4.227,6.581 -8.104,13.569 -9.643,21.238 -2.068,10.299 0.237,20.946 3.092,31.056 3.276,11.599 7.366,23.142 14.175,33.088 6.808,9.947 16.625,18.246 28.304,21.226 9.507,2.425 19.605,1.235 29.218,3.201 18.605,3.805 32.98,18.946 42.332,35.475 4.926,8.708 9.489,18.667 18.546,22.917 10.621,4.983 24.108,-0.529 30.613,-10.292 6.505,-9.763 7.04,-22.512 4.366,-33.934 -2.675,-11.423 -8.227,-21.924 -13.263,-32.519 -5.036,-10.596 -9.673,-21.698 -10.298,-33.412 -1.031,-19.325 8.944,-38.301 6.205,-57.457 -1.539,-10.767 -7.045,-20.645 -13.965,-29.035 -5.746,-6.966 -12.628,-13.153 -20.773,-17.052 -12.194,-5.836 -26.57,-6.136 -39.621,-2.614 -13.052,3.523 -24.899,10.636 -35.497,19.029"
                   style="fill:#ffce68;fill-opacity:1;fill-rule:nonzero;stroke:none"
                   id="path46"
                   inkscape:connector-curvature="0" /></g></g></g></g><g
           id="g54"><g
             id="g56" /><g
             id="g68"><g
               clip-path="url(#clipPath60)"
               id="g66"
               style="opacity:0.10000598"><g
                 transform="translate(470.858,74.7178)"
                 id="g64"><path
                   d="m 0,0 c 0,-6.896 -98.961,-12.484 -221.036,-12.484 -122.074,0 -221.035,5.588 -221.035,12.484 0,6.895 98.961,12.484 221.035,12.484 C -98.961,12.484 0,6.895 0,0"
                   style="fill:#1d262d;fill-opacity:1;fill-rule:nonzero;stroke:none"
                   id="path62"
                   inkscape:connector-curvature="0" /></g></g></g></g></g></g><path
       d="M 429.351,76.817 H 190.183 v 319.075 h 239.168 z"
       style="fill:#215b74;fill-opacity:1;fill-rule:nonzero;stroke:none"
       id="path70"
       inkscape:connector-curvature="0" /><g
       id="g72"><g
         id="g74"
         clip-path="url(#clipPath78)"><g
           id="g80"><g
             id="g82" /><g
             id="g92"><g
               clip-path="url(#clipPath86)"
               id="g90"
               style="opacity:0.19999701"><path
                 d="M 414.713,88.558 H 204.819 v 285.829 h 209.894 z"
                 style="fill:#1d262d;fill-opacity:1;fill-rule:nonzero;stroke:none"
                 id="path88"
                 inkscape:connector-curvature="0" /></g></g></g></g></g><path
       d="M 414.713,93.44 H 204.819 v 285.829 h 209.894 z"
       style="fill:#ffffff;fill-opacity:1;fill-rule:nonzero;stroke:none"
       id="path94"
       inkscape:connector-curvature="0" /><g
       id="g96"
       transform="translate(189.1319,376.0327)"><path
         d="M 0,0 V 20.91 H 20.91 Z"
         style="fill:#dc894e;fill-opacity:1;fill-rule:nonzero;stroke:none"
         id="path98"
         inkscape:connector-curvature="0" /></g><g
       id="g100"
       transform="translate(430.4015,376.0327)"><path
         d="M 0,0 V 20.91 H -20.91 Z"
         style="fill:#dc894e;fill-opacity:1;fill-rule:nonzero;stroke:none"
         id="path102"
         inkscape:connector-curvature="0" /></g><g
       id="g104"
       transform="translate(189.1319,95.8613)"><path
         d="M 0,0 V -20.91 H 20.91 Z"
         style="fill:#dc894e;fill-opacity:1;fill-rule:nonzero;stroke:none"
         id="path106"
         inkscape:connector-curvature="0" /></g><g
       id="g108"
       transform="translate(430.4015,95.8613)"><path
         d="M 0,0 V -20.91 H -20.91 Z"
         style="fill:#dc894e;fill-opacity:1;fill-rule:nonzero;stroke:none"
         id="path110"
         inkscape:connector-curvature="0" /></g><g
       id="g112"><g
         id="g114"
         clip-path="url(#clipPath118)"><g
           id="g120"
           transform="translate(309.7667,388.0312)"><path
             d="m 0,0 v 0 c -8.252,0 -14.942,-3.815 -14.942,4.437 v 1.267 c 0,8.252 6.69,14.942 14.942,14.942 8.252,0 14.942,-6.69 14.942,-14.942 V 4.437 C 14.942,-3.815 8.252,0 0,0"
             style="fill:#ffce68;fill-opacity:1;fill-rule:nonzero;stroke:none"
             id="path122"
             inkscape:connector-curvature="0" /></g><g
           id="g124"><g
             id="g126" /><g
             id="g136"><g
               clip-path="url(#clipPath130)"
               id="g134"
               style="opacity:0.19999701"><path
                 d="m 348.79,369.01 h -78.047 v 7.022 h 78.047 z"
                 style="fill:#1d262d;fill-opacity:1;fill-rule:nonzero;stroke:none"
                 id="path132"
                 inkscape:connector-curvature="0" /></g></g></g><path
           d="M 350.914,371.904 H 268.62 v 27.665 h 82.294 z"
           style="fill:#ffce68;fill-opacity:1;fill-rule:nonzero;stroke:none"
           id="path138"
           inkscape:connector-curvature="0" /></g></g><g
       id="g140"><g
         id="g142"
         clip-path="url(#clipPath146)"><g
           id="g148"><g
             id="g150" /><g
             id="g160"><g
               clip-path="url(#clipPath154)"
               id="g158"
               style="opacity:0.19999701"><path
                 d="M 361.32,368.51 H 260.397 v 15.859 H 361.32 Z"
                 style="fill:#cc2a3a;fill-opacity:1;fill-rule:nonzero;stroke:none"
                 id="path156"
                 inkscape:connector-curvature="0" /></g></g></g></g></g><g
       id="g162"><g
         id="g164"
         clip-path="url(#clipPath168)"><path
           d="m 254.533,297.595 h -28.715 v 28.715 h 28.715 z"
           style="fill:#abd5e6;fill-opacity:1;fill-rule:nonzero;stroke:none"
           id="path170"
           inkscape:connector-curvature="0" /><path
           d="m 223.828,295.604 h 32.696 V 328.3 h -32.696 z m 33.746,-1.05 h -34.796 v 34.797 h 34.796 z"
           style="fill:#abd5e6;fill-opacity:1;fill-rule:nonzero;stroke:none"
           id="path172"
           inkscape:connector-curvature="0" /><path
           d="m 254.533,253.599 h -28.715 v 28.715 h 28.715 z"
           style="fill:#abd5e6;fill-opacity:1;fill-rule:nonzero;stroke:none"
           id="path174"
           inkscape:connector-curvature="0" /><path
           d="m 223.828,251.608 h 32.696 v 32.696 h -32.696 z m 33.746,-1.05 h -34.796 v 34.797 h 34.796 z"
           style="fill:#abd5e6;fill-opacity:1;fill-rule:nonzero;stroke:none"
           id="path176"
           inkscape:connector-curvature="0" /><path
           d="m 254.533,209.602 h -28.715 v 28.716 h 28.715 z"
           style="fill:#abd5e6;fill-opacity:1;fill-rule:nonzero;stroke:none"
           id="path178"
           inkscape:connector-curvature="0" /><path
           d="m 223.828,207.611 h 32.696 v 32.696 h -32.696 z m 33.746,-1.05 h -34.796 v 34.798 h 34.796 z"
           style="fill:#abd5e6;fill-opacity:1;fill-rule:nonzero;stroke:none"
           id="path180"
           inkscape:connector-curvature="0" /><g
           id="g182"
           transform="translate(237.6153,301.8975)"><path
             d="m 0,0 -16.578,16.402 c -1.147,1.136 -1.156,2.985 -0.022,4.132 1.137,1.148 2.986,1.154 4.132,0.022 L -0.232,8.448 19.186,29.897 c 1.081,1.195 2.93,1.29 4.126,0.205 1.195,-1.083 1.288,-2.931 0.204,-4.127 z"
             style="fill:#23809b;fill-opacity:1;fill-rule:nonzero;stroke:none"
             id="path184"
             inkscape:connector-curvature="0" /></g><g
           id="g186"
           transform="translate(237.6153,257.5693)"><path
             d="m 0,0 -16.578,16.402 c -1.147,1.136 -1.156,2.985 -0.022,4.132 1.137,1.148 2.986,1.155 4.132,0.022 L -0.232,8.449 19.186,29.897 c 1.081,1.196 2.93,1.29 4.126,0.205 1.195,-1.082 1.288,-2.93 0.204,-4.126 z"
             style="fill:#23809b;fill-opacity:1;fill-rule:nonzero;stroke:none"
             id="path188"
             inkscape:connector-curvature="0" /></g><g
           id="g190"
           transform="translate(237.6153,214.292)"><path
             d="m 0,0 -16.578,16.402 c -1.147,1.136 -1.156,2.986 -0.022,4.132 1.137,1.149 2.986,1.154 4.132,0.023 L -0.232,8.448 19.186,29.897 c 1.081,1.196 2.93,1.29 4.126,0.206 1.195,-1.083 1.288,-2.931 0.204,-4.127 z"
             style="fill:#23809b;fill-opacity:1;fill-rule:nonzero;stroke:none"
             id="path192"
             inkscape:connector-curvature="0" /></g><path
           d="m 254.533,165.605 h -28.715 v 28.715 h 28.715 z"
           style="fill:#abd5e6;fill-opacity:1;fill-rule:nonzero;stroke:none"
           id="path194"
           inkscape:connector-curvature="0" /><path
           d="m 223.828,163.615 h 32.696 v 32.695 h -32.696 z m 33.746,-1.051 h -34.796 v 34.797 h 34.796 z"
           style="fill:#abd5e6;fill-opacity:1;fill-rule:nonzero;stroke:none"
           id="path196"
           inkscape:connector-curvature="0" /><path
           d="m 254.533,121.608 h -28.715 v 28.716 h 28.715 z"
           style="fill:#abd5e6;fill-opacity:1;fill-rule:nonzero;stroke:none"
           id="path198"
           inkscape:connector-curvature="0" /><path
           d="m 223.828,119.618 h 32.696 v 32.696 h -32.696 z m 33.746,-1.051 h -34.796 v 34.797 h 34.796 z"
           style="fill:#abd5e6;fill-opacity:1;fill-rule:nonzero;stroke:none"
           id="path200"
           inkscape:connector-curvature="0" /><path
           d="M 395.042,318.543 H 267.966 v 3.465 h 127.076 z"
           style="fill:#23809b;fill-opacity:1;fill-rule:nonzero;stroke:none"
           id="path202"
           inkscape:connector-curvature="0" /><path
           d="M 395.042,310.22 H 267.966 v 3.465 h 127.076 z"
           style="fill:#23809b;fill-opacity:1;fill-rule:nonzero;stroke:none"
           id="path204"
           inkscape:connector-curvature="0" /><path
           d="m 307.251,301.897 h -39.285 v 3.465 h 39.285 z"
           style="fill:#23809b;fill-opacity:1;fill-rule:nonzero;stroke:none"
           id="path206"
           inkscape:connector-curvature="0" /><path
           d="M 395.042,275.1 H 267.966 v 3.466 h 127.076 z"
           style="fill:#23809b;fill-opacity:1;fill-rule:nonzero;stroke:none"
           id="path208"
           inkscape:connector-curvature="0" /><path
           d="M 395.042,266.777 H 267.966 v 3.465 h 127.076 z"
           style="fill:#23809b;fill-opacity:1;fill-rule:nonzero;stroke:none"
           id="path210"
           inkscape:connector-curvature="0" /><path
           d="m 351.002,258.454 h -83.036 v 3.465 h 83.036 z"
           style="fill:#23809b;fill-opacity:1;fill-rule:nonzero;stroke:none"
           id="path212"
           inkscape:connector-curvature="0" /><path
           d="M 395.042,231.656 H 267.966 v 3.466 h 127.076 z"
           style="fill:#23809b;fill-opacity:1;fill-rule:nonzero;stroke:none"
           id="path214"
           inkscape:connector-curvature="0" /><path
           d="M 376.657,223.334 H 267.966 v 3.465 h 108.691 z"
           style="fill:#23809b;fill-opacity:1;fill-rule:nonzero;stroke:none"
           id="path216"
           inkscape:connector-curvature="0" /><path
           d="m 307.251,215.011 h -39.285 v 3.466 h 39.285 z"
           style="fill:#23809b;fill-opacity:1;fill-rule:nonzero;stroke:none"
           id="path218"
           inkscape:connector-curvature="0" /><path
           d="M 395.042,188.214 H 267.966 v 3.465 h 127.076 z"
           style="fill:#23809b;fill-opacity:1;fill-rule:nonzero;stroke:none"
           id="path220"
           inkscape:connector-curvature="0" /><path
           d="m 332.008,179.891 h -64.042 v 3.466 h 64.042 z"
           style="fill:#23809b;fill-opacity:1;fill-rule:nonzero;stroke:none"
           id="path222"
           inkscape:connector-curvature="0" /><path
           d="M 395.042,144.771 H 267.966 v 3.465 h 127.076 z"
           style="fill:#23809b;fill-opacity:1;fill-rule:nonzero;stroke:none"
           id="path224"
           inkscape:connector-curvature="0" /><path
           d="M 395.042,136.447 H 267.966 v 3.466 h 127.076 z"
           style="fill:#23809b;fill-opacity:1;fill-rule:nonzero;stroke:none"
           id="path226"
           inkscape:connector-curvature="0" /><path
           d="m 360.622,128.125 h -92.656 v 3.465 h 92.656 z"
           style="fill:#23809b;fill-opacity:1;fill-rule:nonzero;stroke:none"
           id="path228"
           inkscape:connector-curvature="0" /><path
           d="M 370.349,348.792 H 249.534 v 8.563 h 120.815 z"
           style="fill:#23809b;fill-opacity:1;fill-rule:nonzero;stroke:none"
           id="path230"
           inkscape:connector-curvature="0" /><g
           id="g232"
           transform="translate(313.2052,402.0132)"><path
             d="m 0,0 c 0,-1.899 -1.54,-3.438 -3.438,-3.438 -1.899,0 -3.439,1.539 -3.439,3.438 0,1.899 1.54,3.438 3.439,3.438 C -1.54,3.438 0,1.899 0,0"
             style="fill:#ffffff;fill-opacity:1;fill-rule:nonzero;stroke:none"
             id="path234"
             inkscape:connector-curvature="0" /></g><g
           id="g236"
           transform="translate(67.6681,91.7803)"><path
             d="m 0,0 -1.96,-9.702 c 0,0 -12.369,-2.687 -13.115,-5.523 -0.747,-2.836 25.971,-0.895 25.971,-0.895 L 13.732,0"
             style="fill:#47648f;fill-opacity:1;fill-rule:nonzero;stroke:none"
             id="path238"
             inkscape:connector-curvature="0" /></g></g></g><g
       id="g240"><g
         id="g242"
         clip-path="url(#clipPath246)"><g
           id="g248"><g
             id="g250" /><g
             id="g262"><g
               clip-path="url(#clipPath254)"
               id="g260"
               style="opacity:0.10000598"><g
                 transform="translate(63.5323,96.1025)"
                 id="g258"><path
                   d="m 0,0 c -0.806,-0.599 -1.156,-1.681 -1.049,-2.679 0.108,-0.998 0.616,-1.915 1.252,-2.692 1.573,-1.923 3.902,-3.081 6.272,-3.829 2.248,-0.709 4.598,-1.098 6.955,-1.153 2.933,-0.066 6.028,0.452 8.307,2.299 2.28,1.848 3.427,5.298 1.972,7.846 -0.796,1.395 -2.207,2.32 -3.632,3.058 -2.568,1.329 -5.36,2.224 -8.223,2.636"
                   style="fill:#1d262d;fill-opacity:1;fill-rule:nonzero;stroke:none"
                   id="path256"
                   inkscape:connector-curvature="0" /></g></g></g></g></g></g><g
       id="g264"><g
         id="g266"
         clip-path="url(#clipPath270)"><g
           id="g272"
           transform="translate(134.836,91.7803)"><path
             d="m 0,0 -0.309,-9.702 c 0,0 12.369,-2.687 13.115,-5.523 0.746,-2.836 -25.972,-0.895 -25.972,-0.895 L -13.732,0"
             style="fill:#47648f;fill-opacity:1;fill-rule:nonzero;stroke:none"
             id="path274"
             inkscape:connector-curvature="0" /></g></g></g><g
       id="g276"><g
         id="g278"
         clip-path="url(#clipPath282)"><g
           id="g284"><g
             id="g286" /><g
             id="g298"><g
               clip-path="url(#clipPath290)"
               id="g296"
               style="opacity:0.10000598"><g
                 transform="translate(121.6485,96.9277)"
                 id="g294"><path
                   d="m 0,0 c -1.876,-1.082 -3.468,-2.652 -4.575,-4.515 -0.592,-0.996 -1.054,-2.104 -1.092,-3.263 -0.038,-1.159 0.403,-2.375 1.333,-3.069 0.573,-0.428 1.286,-0.631 1.994,-0.737 1.402,-0.211 4.553,-0.596 5.964,-0.456 3.993,0.394 6.49,1.435 9.651,3.906 3.73,2.916 5.148,8.441 3.283,12.793"
                   style="fill:#1d262d;fill-opacity:1;fill-rule:nonzero;stroke:none"
                   id="path292"
                   inkscape:connector-curvature="0" /></g></g></g></g></g></g><g
       id="g300"><g
         id="g302"
         clip-path="url(#clipPath306)"><g
           id="g308"
           transform="translate(189.7511,316.5518)"><path
             d="m 0,0 c 0,0 -9.183,2.86 -8.989,5.523 0.193,2.665 6.383,0.488 6.383,0.488 0,0 -3.445,12.679 -1.965,13.71 1.481,1.03 3.717,-6.898 3.717,-6.898 0,0 0.427,7.735 2.425,7.59 1.998,-0.145 1.615,-6.344 1.615,-6.344 0,0 2.232,4.926 4.181,4.115 C 9.316,17.373 6.109,12 6.109,12 c 0,0 4.951,2.803 5.729,1.458 0.778,-1.345 -3.112,-5.821 -3.112,-5.821 0,0 4.807,-4.533 -0.987,-13.228 -1.589,0.667 -6.096,2.751 -8.45,2.262 z"
             style="fill:#ffd1bb;fill-opacity:1;fill-rule:nonzero;stroke:none"
             id="path310"
             inkscape:connector-curvature="0" /></g><g
           id="g312"
           transform="translate(130.1783,278.0596)"><path
             d="m 0,0 c 0,0 41.55,-3.673 57.437,36.617 11.347,1.71 11.347,-6.304 11.347,-6.304 0,0 -15.713,-58.999 -64.459,-51.271"
             style="fill:#ffd555;fill-opacity:1;fill-rule:nonzero;stroke:none"
             id="path314"
             inkscape:connector-curvature="0" /></g><g
           id="g316"
           transform="translate(84.608,205.2803)"><path
             d="m 0,0 c 0,0 -12.74,-72.155 -18.9,-115.333 13.237,-1.456 16.021,-0.568 16.021,-0.568 l 24.582,88.216 h 10.793 c 0.796,-0.851 3.229,-88.216 3.229,-88.216 0,0 11.106,-1.644 15.48,0.626 0,0 4.995,67.238 6.339,103.698 z"
             style="fill:#798ec9;fill-opacity:1;fill-rule:nonzero;stroke:none"
             id="path318"
             inkscape:connector-curvature="0" /></g></g></g><g
       id="g320"><g
         id="g322"
         clip-path="url(#clipPath326)"><g
           id="g328"><g
             id="g330" /><g
             id="g342"><g
               clip-path="url(#clipPath334)"
               id="g340"
               style="opacity:0.10000598"><g
                 transform="translate(59.0821,204.5459)"
                 id="g338"><path
                   d="M 0,0 C 17.985,-13.806 41.164,-20.67 63.766,-18.885 86.368,-17.099 108.182,-6.68 123.775,9.779 85.037,12.597 45.052,14.855 8.356,2.128"
                   style="fill:#1d262d;fill-opacity:1;fill-rule:nonzero;stroke:none"
                   id="path336"
                   inkscape:connector-curvature="0" /></g></g></g></g></g></g><g
       id="g344"><g
         id="g346"
         clip-path="url(#clipPath350)"><g
           id="g352"
           transform="translate(119.8121,279.6538)"><path
             d="m 0,0 c 0,0 -13.966,-0.798 -17.841,-4.543 -3.876,-3.746 -12.152,-29.207 -17.363,-69.831 20.803,-21.938 57.544,-11.577 57.544,-11.577 0,0 1.869,74.017 -0.105,77.741 C 18.463,-1.092 0,0 0,0"
             style="fill:#ffd555;fill-opacity:1;fill-rule:nonzero;stroke:none"
             id="path354"
             inkscape:connector-curvature="0" /></g></g></g><g
       id="g356"><g
         id="g358"
         clip-path="url(#clipPath362)"><g
           id="g364"><g
             id="g366" /><g
             id="g378"><g
               clip-path="url(#clipPath370)"
               id="g376"
               style="opacity:0.19999701"><g
                 transform="translate(101.5426,204.4775)"
                 id="g374"><path
                   d="m 0,0 c 21.591,-1.739 39.707,9.215 47.499,15.256 1.531,1.186 3.687,1.343 5.163,2.597 1.477,1.253 2.507,3.219 2.114,5.117 -0.619,2.984 -4.128,4.247 -7.122,4.819 C 33.379,30.517 18.664,29.473 4.543,26.36 -1.743,24.974 -30.389,20.424 -20.652,8.946 -16.46,4.004 -6.275,0.505 0,0"
                   style="fill:#d15579;fill-opacity:1;fill-rule:nonzero;stroke:none"
                   id="path372"
                   inkscape:connector-curvature="0" /></g></g></g></g></g></g><g
       id="g380"><g
         id="g382"
         clip-path="url(#clipPath386)"><g
           id="g388"
           transform="translate(29.0377,201.1104)"><path
             d="m 0,0 -2.613,9.116 c -1.124,3.92 1.143,8.009 5.063,9.133 L 133.438,55.8 140.121,32.489 9.133,-5.062 C 5.212,-6.187 1.124,-3.92 0,0"
             style="fill:#dd7e62;fill-opacity:1;fill-rule:nonzero;stroke:none"
             id="path390"
             inkscape:connector-curvature="0" /></g></g></g><g
       id="g392"><g
         id="g394"
         clip-path="url(#clipPath398)"><g
           id="g400"><g
             id="g402" /><g
             id="g414"><g
               clip-path="url(#clipPath406)"
               id="g412"
               style="opacity:0.42999303"><g
                 transform="translate(154.3746,216.8252)"
                 id="g410"><path
                   d="m 0,0 -14.067,49.068 4.34,1.245 L 4.34,1.244 Z"
                   style="fill:#ffffff;fill-opacity:1;fill-rule:nonzero;stroke:none"
                   id="path408"
                   inkscape:connector-curvature="0" /></g></g></g></g><g
           id="g416"><g
             id="g418" /><g
             id="g430"><g
               clip-path="url(#clipPath422)"
               id="g428"
               style="opacity:0.42999303"><g
                 transform="translate(48.359,186.4326)"
                 id="g426"><path
                   d="m 0,0 -14.066,49.068 4.34,1.245 L 4.34,1.244 Z"
                   style="fill:#ffffff;fill-opacity:1;fill-rule:nonzero;stroke:none"
                   id="path424"
                   inkscape:connector-curvature="0" /></g></g></g></g><g
           id="g432"
           transform="translate(13.984,175.1768)"><path
             d="M 0,0 -14.067,49.068 20.987,59.118 35.054,10.05 Z"
             style="fill:#215b74;fill-opacity:1;fill-rule:nonzero;stroke:none"
             id="path434"
             inkscape:connector-curvature="0" /></g><g
           id="g436"><g
             id="g438" /><g
             id="g450"><g
               clip-path="url(#clipPath442)"
               id="g448"
               style="opacity:0.5"><g
                 transform="translate(19.4913,198.0371)"
                 id="g446"><path
                   d="m 0,0 6.75,-23.545 163.487,46.868 -6.749,23.545 z"
                   style="fill:#d15579;fill-opacity:1;fill-rule:nonzero;stroke:none"
                   id="path444"
                   inkscape:connector-curvature="0" /></g></g></g></g><g
           id="g452"><g
             id="g454" /><g
             id="g466"><g
               clip-path="url(#clipPath458)"
               id="g464"
               style="opacity:0.19999701"><g
                 transform="translate(9.6876,232.2354)"
                 id="g462"><path
                   d="m 0,0 6.75,-23.545 163.487,46.868 -6.749,23.545 z"
                   style="fill:#d15579;fill-opacity:1;fill-rule:nonzero;stroke:none"
                   id="path460"
                   inkscape:connector-curvature="0" /></g></g></g></g></g></g><g
       id="g468"><g
         id="g470"
         clip-path="url(#clipPath474)"><g
           id="g476"
           transform="translate(162.4762,256.9106)"><path
             d="M 0,0 22.532,-6.154 6.683,-23.311 Z"
             style="fill:#ffeaaa;fill-opacity:1;fill-rule:nonzero;stroke:none"
             id="path478"
             inkscape:connector-curvature="0" /></g></g></g><g
       id="g480"><g
         id="g482"
         clip-path="url(#clipPath486)"><g
           id="g488"
           transform="translate(195.3663,238.1895)"><path
             d="M 0,0 C -7.754,-2.223 -15.842,2.261 -18.065,10.015 -20.288,17.769 -15.804,25.857 -8.05,28.08 -0.296,30.303 7.792,25.819 10.015,18.065 12.238,10.311 7.754,2.223 0,0"
             style="fill:#23809b;fill-opacity:1;fill-rule:nonzero;stroke:none"
             id="path490"
             inkscape:connector-curvature="0" /></g></g></g><g
       id="g492"><g
         id="g494"
         clip-path="url(#clipPath498)"><g
           id="g500"
           transform="translate(99.1964,220.749)"><path
             d="m 0,0 c 0,0 6.9,0.357 9.993,-0.951 3.093,-1.309 4.591,-2.081 4.591,-2.081 l 6.171,1.769 c 0,0 -1.49,-8.126 -8.866,-8.72 -7.376,-0.595 -13.674,1.537 -13.674,1.537 z"
             style="fill:#ffd1bb;fill-opacity:1;fill-rule:nonzero;stroke:none"
             id="path502"
             inkscape:connector-curvature="0" /></g><g
           id="g504"
           transform="translate(111.8292,278.5615)"><path
             d="m 0,0 c 0,0 -43.576,-2.687 -47.256,-41.161 -2.532,-26.459 34.365,-27.796 34.365,-27.796 l 1.729,11.727 c 0,0 -15.492,6.417 -15.492,15.891 0,9.476 16.796,16.483 16.796,16.483 z"
             style="fill:#ffd555;fill-opacity:1;fill-rule:nonzero;stroke:none"
             id="path506"
             inkscape:connector-curvature="0" /></g><g
           id="g508"
           transform="translate(120.3219,280.2886)"><path
             d="M 0,0 C -7.716,0 -15.156,-2.707 -15.156,-2.707 L 2.846,-17.993 17.343,-2.117 C 17.343,-2.117 12.393,0 0,0"
             style="fill:#ffaa4d;fill-opacity:1;fill-rule:nonzero;stroke:none"
             id="path510"
             inkscape:connector-curvature="0" /></g><g
           id="g512"
           transform="translate(110.421,291.0854)"><path
             d="m 0,0 c 0,0 -6.516,-0.493 -8.786,1.568 -4.581,4.162 -7.837,28.033 -8.008,33.048 -0.172,5.015 5.798,12.11 12.728,12.149 0.991,7.378 5.11,5.102 5.11,5.102 0,0 -1.939,3.101 0.497,5.325 1.382,-2.64 2.172,-4.679 2.172,-4.679 0,0 3.847,3.16 12.564,1.55 8.717,-1.61 14.102,2.568 16.161,-1.644 C 34.498,48.208 37.882,35.3 32.243,32.842 26.604,30.384 -2.595,14.977 0,0"
             style="fill:#27305c;fill-opacity:1;fill-rule:nonzero;stroke:none"
             id="path514"
             inkscape:connector-curvature="0" /></g><g
           id="g516"
           transform="translate(109.4357,296.895)"><path
             d="m 0,0 2.744,-21.02 10.812,-9.204 9.006,9.204 v 13.548"
             style="fill:#ffd1bb;fill-opacity:1;fill-rule:nonzero;stroke:none"
             id="path518"
             inkscape:connector-curvature="0" /></g></g></g><g
       id="g520"><g
         id="g522"
         clip-path="url(#clipPath526)"><g
           id="g528"><g
             id="g530" /><g
             id="g542"><g
               clip-path="url(#clipPath534)"
               id="g540"
               style="opacity:0.19999701"><g
                 transform="translate(119.0216,307.2119)"
                 id="g538"><path
                   d="m 0,0 c -2.604,-0.052 -4.933,-1.904 -6.138,-4.213 -1.206,-2.308 -1.447,-5.003 -1.345,-7.606 0.083,-2.104 0.383,-4.23 1.228,-6.16 1.045,-2.388 2.886,-4.369 5.007,-5.884 2.83,-2.021 6.314,-3.284 9.775,-2.946 3.461,0.34 6.827,2.471 8.12,5.7 1.443,3.602 0.139,7.767 -1.983,11.016 -2.444,3.739 -6.139,6.845 -10.518,7.73 -1.872,0.379 -4.023,0.267 -5.405,-1.052"
                   style="fill:#d15579;fill-opacity:1;fill-rule:nonzero;stroke:none"
                   id="path536"
                   inkscape:connector-curvature="0" /></g></g></g></g></g></g><g
       id="g544"><g
         id="g546"
         clip-path="url(#clipPath550)"><g
           id="g552"
           transform="translate(113.4469,333.5952)"><path
             d="M 0,0 C -7.243,-3.098 -14.139,-29.858 -5.116,-41.393 3.908,-52.927 25.522,-50.742 33.039,-41.949 39.159,-34.789 30.18,12.908 0,0"
             style="fill:#ffd1bb;fill-opacity:1;fill-rule:nonzero;stroke:none"
             id="path554"
             inkscape:connector-curvature="0" /></g><g
           id="g556"
           transform="translate(134.8893,317.4927)"><path
             d="m 0,0 c -1.271,-0.607 1.003,-13.138 1.003,-13.138 1.716,-0.221 7.06,2.633 7.06,3.753 0,0 -5.646,10.54 -8.063,9.385"
             style="fill:#ffa690;fill-opacity:1;fill-rule:nonzero;stroke:none"
             id="path558"
             inkscape:connector-curvature="0" /></g><g
           id="g560"
           transform="translate(99.3898,306.2012)"><path
             d="m 0,0 c 0.118,2.097 1.915,3.742 3.833,4.597 1.917,0.856 4.924,-4.05 7.021,-3.938 3.418,0.181 6.215,1.854 6.593,3.245 0.268,0.985 0.04,12.563 1.49,14.221 2.468,2.824 6.727,2.977 10.477,2.948 3.749,-0.028 8.029,0.215 10.395,3.123 0.545,0.671 0.956,1.469 1.067,2.325 0.177,1.349 -0.401,2.696 -1.204,3.793 C 36.921,34.075 31.8,35.339 27.148,35.081 19.587,34.66 12.353,30.833 7.447,25.064 2.541,19.295 -0.06,11.701 -0.12,4.128"
             style="fill:#27305c;fill-opacity:1;fill-rule:nonzero;stroke:none"
             id="path562"
             inkscape:connector-curvature="0" /></g><g
           id="g564"
           transform="translate(111.4811,304.8579)"><path
             d="M 0,0 C 0,0 0.9,13.992 -6.283,11.971 -13.467,9.95 -11.767,-4.131 -3.592,-3.859"
             style="fill:#ffd1bb;fill-opacity:1;fill-rule:nonzero;stroke:none"
             id="path566"
             inkscape:connector-curvature="0" /></g><g
           id="g568"
           transform="translate(123.0563,317.8799)"><path
             d="M 0,0 C -0.322,-0.709 0.602,-2.592 1.611,-2.438 2.62,-2.285 7.556,-1.647 8.05,-0.487 8.544,0.673 7.69,2.098 7.006,2.335 6.322,2.573 0.4,0.88 0,0"
             style="fill:#27305c;fill-opacity:1;fill-rule:nonzero;stroke:none"
             id="path570"
             inkscape:connector-curvature="0" /></g><g
           id="g572"
           transform="translate(138.4962,321.6538)"><path
             d="m 0,0 c -0.359,-0.669 0.264,-2.643 1.173,-2.603 0.909,0.041 5.344,0.124 5.902,1.222 C 7.633,-0.283 7.024,1.228 6.443,1.541 5.862,1.853 0.445,0.83 0,0"
             style="fill:#27305c;fill-opacity:1;fill-rule:nonzero;stroke:none"
             id="path574"
             inkscape:connector-curvature="0" /></g><g
           id="g576"
           transform="translate(129.462,309.6147)"><path
             d="M 0,0 C 0.398,-0.179 0.796,-0.113 1.17,-0.01 1.736,0.145 2.34,0.459 2.498,1.249 2.632,1.92 2.395,2.733 2.088,3.41 1.921,3.778 1.729,4.134 1.491,4.414 0.802,5.223 -0.192,5.19 -0.701,4.431 -1.35,3.462 -1.279,0.573 0,0"
             style="fill:#0a303e;fill-opacity:1;fill-rule:nonzero;stroke:none"
             id="path578"
             inkscape:connector-curvature="0" /></g><g
           id="g580"
           transform="translate(141.6393,312.5591)"><path
             d="M 0,0 C 0.398,-0.179 0.796,-0.113 1.17,-0.01 1.736,0.145 2.339,0.459 2.498,1.249 2.631,1.92 2.395,2.733 2.087,3.41 1.921,3.778 1.729,4.134 1.491,4.414 0.802,5.223 -0.192,5.19 -0.701,4.431 -1.351,3.462 -1.279,0.573 0,0"
             style="fill:#0a303e;fill-opacity:1;fill-rule:nonzero;stroke:none"
             id="path582"
             inkscape:connector-curvature="0" /></g><g
           id="g584"
           transform="translate(109.4283,310.7505)"><path
             d="M 0,0 C -0.103,1.429 -0.963,2.801 -2.244,3.443 -3.145,3.896 -4.295,3.961 -5.127,3.391 -5.96,2.82 -6.288,1.534 -5.655,0.748 c 0.321,-0.397 0.844,-0.655 0.993,-1.143 0.145,-0.471 -0.118,-0.957 -0.32,-1.406 -0.42,-0.935 -0.551,-2.151 0.158,-2.892 0.427,-0.448 1.111,-0.622 1.708,-0.459 1.832,0.5 3.24,3.419 3.116,5.152"
             style="fill:#ffa690;fill-opacity:1;fill-rule:nonzero;stroke:none"
             id="path586"
             inkscape:connector-curvature="0" /></g><g
           id="g588"
           transform="translate(105.6002,219.6533)"><path
             d="M 0,0 C 0,0 5.769,2.647 7.234,2.837 8.7,3.026 9.457,1.713 9.078,0.951 8.7,0.189 4.587,-2.27 4.587,-2.27"
             style="fill:#ffd1bb;fill-opacity:1;fill-rule:nonzero;stroke:none"
             id="path590"
             inkscape:connector-curvature="0" /></g><g
           id="g592"
           transform="translate(459.9049,349.6279)"><path
             d="m 0,0 c 0,-3.446 -2.794,-6.24 -6.24,-6.24 -3.447,0 -6.24,2.794 -6.24,6.24 0,3.446 2.793,6.24 6.24,6.24 C -2.794,6.24 0,3.446 0,0"
             style="fill:#e15c56;fill-opacity:1;fill-rule:nonzero;stroke:none"
             id="path594"
             inkscape:connector-curvature="0" /></g><g
           id="g596"
           transform="translate(448.1217,414.6289)"><path
             d="m 0,0 c 0,-3.287 -2.665,-5.952 -5.951,-5.952 -3.287,0 -5.952,2.665 -5.952,5.952 0,3.287 2.665,5.952 5.952,5.952 C -2.665,5.952 0,3.287 0,0"
             style="fill:#215b74;fill-opacity:1;fill-rule:nonzero;stroke:none"
             id="path598"
             inkscape:connector-curvature="0" /></g><g
           id="g600"
           transform="translate(393.6871,444.4395)"><path
             d="m 0,0 c 1.807,-1.806 1.807,-4.735 0,-6.541 -1.806,-1.806 -4.734,-1.806 -6.541,0 -1.806,1.806 -1.806,4.735 0,6.541 1.807,1.806 4.735,1.806 6.541,0"
             style="fill:#ffce68;fill-opacity:1;fill-rule:nonzero;stroke:none"
             id="path602"
             inkscape:connector-curvature="0" /></g><g
           id="g604"
           transform="translate(467.8004,216.3291)"><path
             d="m 0,0 c 1.806,-1.807 1.806,-4.734 0,-6.541 -1.807,-1.806 -4.735,-1.806 -6.541,0 -1.806,1.807 -1.806,4.734 0,6.541 1.806,1.807 4.734,1.807 6.541,0"
             style="fill:#ffce68;fill-opacity:1;fill-rule:nonzero;stroke:none"
             id="path606"
             inkscape:connector-curvature="0" /></g><g
           id="g608"
           transform="translate(349.3033,452.6206)"><path
             d="m 0,0 c 0,-2.418 -1.961,-4.379 -4.379,-4.379 -2.419,0 -4.38,1.961 -4.38,4.379 0,2.418 1.961,4.379 4.38,4.379 C -1.961,4.379 0,2.418 0,0"
             style="fill:#ffce68;fill-opacity:1;fill-rule:nonzero;stroke:none"
             id="path610"
             inkscape:connector-curvature="0" /></g><g
           id="g612"
           transform="translate(42.8004,151.2373)"><path
             d="m 0,0 c 0,-2.419 -1.961,-4.38 -4.379,-4.38 -2.419,0 -4.38,1.961 -4.38,4.38 0,2.418 1.961,4.379 4.38,4.379 C -1.961,4.379 0,2.418 0,0"
             style="fill:#ffce68;fill-opacity:1;fill-rule:nonzero;stroke:none"
             id="path614"
             inkscape:connector-curvature="0" /></g><g
           id="g616"
           transform="translate(380.8995,412.5078)"><path
             d="m 0,0 c 0,-1.171 -0.95,-2.121 -2.121,-2.121 -1.171,0 -2.121,0.95 -2.121,2.121 0,1.171 0.95,2.121 2.121,2.121 C -0.95,2.121 0,1.171 0,0"
             style="fill:#23809b;fill-opacity:1;fill-rule:nonzero;stroke:none"
             id="path618"
             inkscape:connector-curvature="0" /></g><g
           id="g620"
           transform="translate(440.5982,454.8105)"><path
             d="m 0,0 c 0,-1.209 -0.98,-2.19 -2.19,-2.19 -1.209,0 -2.189,0.981 -2.189,2.19 0,1.209 0.98,2.189 2.189,2.189 C -0.98,2.189 0,1.209 0,0"
             style="fill:#23809b;fill-opacity:1;fill-rule:nonzero;stroke:none"
             id="path622"
             inkscape:connector-curvature="0" /></g><g
           id="g624"
           transform="translate(480.7945,319.6558)"><path
             d="m 0,0 c 0,-1.209 -0.98,-2.189 -2.19,-2.189 -1.209,0 -2.189,0.98 -2.189,2.189 0,1.209 0.98,2.19 2.189,2.19 C -0.98,2.19 0,1.209 0,0"
             style="fill:#23809b;fill-opacity:1;fill-rule:nonzero;stroke:none"
             id="path626"
             inkscape:connector-curvature="0" /></g><g
           id="g628"
           transform="translate(270.7433,436.7412)"><path
             d="m 0,0 c 0,-2.446 -1.982,-4.428 -4.428,-4.428 -2.446,0 -4.428,1.982 -4.428,4.428 0,2.445 1.982,4.428 4.428,4.428 C -1.982,4.428 0,2.445 0,0"
             style="fill:#dc894e;fill-opacity:1;fill-rule:nonzero;stroke:none"
             id="path630"
             inkscape:connector-curvature="0" /></g><g
           id="g632"
           transform="translate(158.7838,384.8413)"><path
             d="m 0,0 c 0,-2.155 -1.747,-3.901 -3.901,-3.901 -2.155,0 -3.902,1.746 -3.902,3.901 0,2.155 1.747,3.901 3.902,3.901 C -1.747,3.901 0,2.155 0,0"
             style="fill:#23809b;fill-opacity:1;fill-rule:nonzero;stroke:none"
             id="path634"
             inkscape:connector-curvature="0" /></g><g
           id="g636"
           transform="translate(158.7838,423.0415)"><path
             d="m 0,0 c 0,-2.896 -2.347,-5.243 -5.243,-5.243 -2.896,0 -5.243,2.347 -5.243,5.243 0,2.896 2.347,5.243 5.243,5.243 C -2.347,5.243 0,2.896 0,0"
             style="fill:#ffce68;fill-opacity:1;fill-rule:nonzero;stroke:none"
             id="path638"
             inkscape:connector-curvature="0" /></g><g
           id="g640"
           transform="translate(81.4,367.4829)"><path
             d="m 0,0 c 0,-2.782 -2.256,-5.038 -5.039,-5.038 -2.782,0 -5.038,2.256 -5.038,5.038 0,2.783 2.256,5.039 5.038,5.039 C -2.256,5.039 0,2.783 0,0"
             style="fill:#ffce68;fill-opacity:1;fill-rule:nonzero;stroke:none"
             id="path642"
             inkscape:connector-curvature="0" /></g><g
           id="g644"
           transform="translate(131.9982,382.7324)"><path
             d="m 0,0 c 0,-1.66 -1.345,-3.005 -3.005,-3.005 -1.659,0 -3.004,1.345 -3.004,3.005 0,1.659 1.345,3.004 3.004,3.004 C -1.345,3.004 0,1.659 0,0"
             style="fill:#215b74;fill-opacity:1;fill-rule:nonzero;stroke:none"
             id="path646"
             inkscape:connector-curvature="0" /></g><g
           id="g648"
           transform="translate(67.4527,173.4365)"><path
             d="m 0,0 c 0,-1.659 -1.345,-3.005 -3.004,-3.005 -1.66,0 -3.005,1.346 -3.005,3.005 0,1.659 1.345,3.004 3.005,3.004 C -1.345,3.004 0,1.659 0,0"
             style="fill:#215b74;fill-opacity:1;fill-rule:nonzero;stroke:none"
             id="path650"
             inkscape:connector-curvature="0" /></g><g
           id="g652"
           transform="translate(84.608,416.4575)"><path
             d="m 0,0 c 0,-2.277 -1.846,-4.124 -4.124,-4.124 -2.276,0 -4.123,1.847 -4.123,4.124 0,2.277 1.847,4.123 4.123,4.123 C -1.846,4.123 0,2.277 0,0"
             style="fill:#dc894e;fill-opacity:1;fill-rule:nonzero;stroke:none"
             id="path654"
             inkscape:connector-curvature="0" /></g><g
           id="g656"
           transform="translate(41.9381,303.4624)"><path
             d="m 0,0 c 0,-1.943 -1.575,-3.518 -3.517,-3.518 -1.942,0 -3.518,1.575 -3.518,3.518 0,1.942 1.576,3.517 3.518,3.517 C -1.575,3.517 0,1.942 0,0"
             style="fill:#e15c56;fill-opacity:1;fill-rule:nonzero;stroke:none"
             id="path658"
             inkscape:connector-curvature="0" /></g></g></g></g></svg>