<svg width="16" height="17" viewBox="0 0 16 17" fill="none" xmlns="http://www.w3.org/2000/svg">
<path d="M1.5 4H3H15" stroke="red" stroke-width="1.3" stroke-linecap="round" stroke-linejoin="round"/>
<path d="M14.15 4C14.15 3.64101 13.859 3.35 13.5 3.35C13.141 3.35 12.85 3.64101 12.85 4H14.15ZM3.65 4C3.65 3.64101 3.35899 3.35 3 3.35C2.64101 3.35 2.35 3.64101 2.35 4H3.65ZM4.6 4C4.6 4.35899 4.89101 4.65 5.25 4.65C5.60899 4.65 5.9 4.35899 5.9 4H4.6ZM10.6 4C10.6 4.35899 10.891 4.65 11.25 4.65C11.609 4.65 11.9 4.35899 11.9 4H10.6ZM12.85 4V14.5H14.15V4H12.85ZM12.85 14.5C12.85 14.9694 12.4694 15.35 12 15.35V16.65C13.1874 16.65 14.15 15.6874 14.15 14.5H12.85ZM12 15.35H4.5V16.65H12V15.35ZM4.5 15.35C4.03056 15.35 3.65 14.9694 3.65 14.5H2.35C2.35 15.6874 3.31259 16.65 4.5 16.65V15.35ZM3.65 14.5V4H2.35V14.5H3.65ZM5.9 4V2.5H4.6V4H5.9ZM5.9 2.5C5.9 2.03056 6.28056 1.65 6.75 1.65V0.35C5.56259 0.35 4.6 1.31259 4.6 2.5H5.9ZM6.75 1.65H9.75V0.35H6.75V1.65ZM9.75 1.65C10.2194 1.65 10.6 2.03056 10.6 2.5H11.9C11.9 1.31259 10.9374 0.35 9.75 0.35V1.65ZM10.6 2.5V4H11.9V2.5H10.6Z" fill="red"/>
<path d="M6.75 7.75V12.25" stroke="red" stroke-width="1.3" stroke-linecap="round" stroke-linejoin="round"/>
<path d="M9.75 7.75V12.25" stroke="red" stroke-width="1.3" stroke-linecap="round" stroke-linejoin="round"/>
</svg>
