<svg viewBox="0 0 53 40" fill="none" xmlns="http://www.w3.org/2000/svg">
    <path d="M12.4597 24.2658C11.664 26.5647 10.8534 28.7753 10.0282 30.8974C9.2029 33.0195 8.51027 34.6258 7.95027 35.7163C7.41974 36.8363 6.94817 37.6026 6.53553 38.0153C6.1229 38.4279 5.69553 38.7079 5.25343 38.8553C4.8408 39.0026 4.41343 39.0616 3.97132 39.0321C3.55869 39.0026 3.13132 38.9732 2.68922 38.9437C0.21343 38.5605 -0.552886 36.7774 0.390272 33.5942C1.00922 31.0595 1.51027 28.9963 1.89343 27.4047C2.27659 25.7837 2.58606 24.4574 2.82185 23.4258C3.08711 22.3647 3.30817 21.4953 3.48501 20.8174C3.66185 20.11 3.85343 19.4174 4.05975 18.7395C4.26606 18.0616 4.51659 17.2953 4.81132 16.4405C5.13553 15.5858 5.54817 14.4511 6.04922 13.0363C4.92922 13.1837 3.92711 13.0658 3.0429 12.6826C1.74606 12.1226 1.21554 10.9142 1.45132 9.05738C1.56922 8.20265 2.02606 7.40686 2.82185 6.67001C3.23448 6.28686 3.7208 5.87422 4.2808 5.43212C5.43027 4.51844 7.71448 3.5458 11.1334 2.51422C14.6703 1.45317 17.7061 0.95212 20.2408 1.01107C20.9187 0.893172 21.6113 0.981593 22.3187 1.27633C23.0555 1.54159 23.645 1.91001 24.0871 2.38159C24.5292 2.85317 24.7503 3.36896 24.7503 3.92896C24.7797 4.48896 24.4261 4.99001 23.6892 5.43212C23.3355 5.66791 23.085 6.0658 22.9376 6.6258C22.7903 7.15633 22.6282 7.73107 22.4513 8.35001C22.2745 8.93949 22.0092 9.48475 21.6555 9.9858C21.3313 10.4869 20.8008 10.7816 20.064 10.87C19.6808 11.0763 19.1355 11.2237 18.4282 11.3121C17.7503 11.4005 17.2934 11.4742 17.0576 11.5332C16.8513 11.5626 16.7334 11.6363 16.704 11.7542C16.1734 13.3163 15.5397 15.2174 14.8029 17.4574C14.0661 19.6679 13.285 21.9374 12.4597 24.2658ZM6.49132 12.55C6.43238 12.55 6.4029 12.5648 6.4029 12.5942C6.4029 12.5942 6.43238 12.5942 6.49132 12.5942V12.55ZM36.6408 3.31001C36.9355 4.1058 37.0976 4.63633 37.1271 4.90159C37.1861 5.46159 36.9797 5.93317 36.5082 6.31633C36.5082 6.3458 36.4787 6.39001 36.4197 6.44896C36.685 7.83422 36.744 9.13107 36.5966 10.3395C36.4492 11.5479 36.2576 12.7121 36.0219 13.8321C37.6134 11.1205 38.8808 9.13107 39.824 7.8637C41.7692 5.24054 43.5818 3.36896 45.2618 2.24896C45.8218 1.92475 46.4997 1.68896 47.2955 1.54159C48.1208 1.36475 48.9019 1.33528 49.6387 1.45317C50.3755 1.57107 50.9797 1.8658 51.4513 2.33738C51.9524 2.80896 52.1734 3.51633 52.1145 4.45949C51.2892 10.2069 50.405 15.5711 49.4618 20.5521C48.5187 25.5037 47.2955 30.2342 45.7924 34.7437V34.8321H45.7482C45.3945 35.8932 44.5103 36.6447 43.0955 37.0869C41.7103 37.4995 40.4724 37.529 39.3819 37.1753C38.0555 36.7921 37.4513 36.0847 37.5692 35.0532L37.6134 34.0363V33.9479C37.7313 33.2405 37.7903 32.769 37.7903 32.5332C37.8197 32.2679 37.8492 32.0763 37.8787 31.9584C37.9376 31.1921 38.0555 30.4848 38.2324 29.8363C38.4387 29.1584 38.5861 28.6132 38.6745 28.2005C38.7629 27.7879 38.8513 27.4047 38.9397 27.0511C39.0282 26.6679 39.0871 26.3732 39.1166 26.1669C37.9966 27.6995 37.2008 28.6279 36.7292 28.9521C35.5503 29.7774 34.1797 30.1605 32.6176 30.1016C31.645 30.0426 31.085 29.8216 30.9376 29.4384C30.6429 28.6132 30.4366 28.1269 30.3187 27.9795C30.1418 27.7437 29.9945 27.3458 29.8766 26.7858C29.1103 30.1753 28.3587 32.5774 27.6218 33.9921C27.3271 34.5521 27.0324 35.0532 26.7376 35.4953C26.325 36.4679 25.3818 37.1458 23.9082 37.529C22.5229 37.9121 21.1966 37.8826 19.9292 37.4405C18.6324 37.0279 18.0134 36.2911 18.0724 35.23C18.1313 34.169 18.3524 32.8426 18.7355 31.2511C19.0892 29.63 19.5166 27.9205 20.0176 26.1226C21.5208 20.4342 22.5818 16.7353 23.2008 15.0258C23.8492 13.3163 24.3945 11.9753 24.8366 11.0026C25.8976 8.73317 26.8408 7.08265 27.6661 6.05107C28.5797 4.19422 30.0976 3.07422 32.2197 2.69107C33.8997 2.36686 35.3734 2.57317 36.6408 3.31001Z" fill="black"/>
</svg>
