<svg xmlns="http://www.w3.org/2000/svg" xmlns:xlink="http://www.w3.org/1999/xlink" width="32" height="32" id="user">
  <defs>
    <linearGradient id="a">
      <stop offset="0" stop-color="#000092"></stop>
      <stop offset="1" stop-color="#ff00f3"></stop>
    </linearGradient>
    <linearGradient xlink:href="#a" id="b" x1="5" x2="24" y1="16.717" y2="16.717" gradientUnits="userSpaceOnUse"></linearGradient>
  </defs>
  <path fill="url(#b)" fill-rule="evenodd" d="M15.48 4.434c-3.021 0-5.48 2.469-5.48 5.5 0 3.03 2.459 5.5 5.48 5.5 3.022 0 5.48-2.47 5.48-5.5.001-3.031-2.458-5.5-5.48-5.5zm0 1c2.48 0 4.481 2.007 4.48 4.5 0 2.492-2 4.5-4.48 4.5a4.483 4.483 0 0 1-4.48-4.5c0-2.493 2.001-4.5 4.48-4.5zm-2.98 11c-4.148 0-7.5 3.368-7.5 7.529v4.516a.5.5 0 0 0 .5.5h3.854a.5.5 0 0 0 .292 0h11.708a.5.5 0 0 0 .292 0H25.5a.5.5 0 0 0 .5-.5v-4.516c0-4.161-3.352-7.53-7.5-7.53h-6zm0 1h6c3.609 0 6.5 2.902 6.5 6.529v4.016h-3v-4.024a.5.5 0 0 0-.508-.506.5.5 0 0 0-.492.506v4.024H10v-4.024a.5.5 0 0 0-.508-.506.5.5 0 0 0-.492.506v4.024H6v-4.016c0-3.627 2.891-6.53 6.5-6.53z" color="#000" font-family="sans-serif" font-weight="400" overflow="visible" style="line-height:normal;text-indent:0;text-align:start;text-decoration-line:none;text-decoration-style:solid;text-decoration-color:#000;text-transform:none;block-progression:tb;isolation:auto;mix-blend-mode:normal"></path>
</svg>
