<?xml version="1.0" standalone="no"?>
<!DOCTYPE svg PUBLIC "-//W3C//DTD SVG 20010904//EN"
 "http://www.w3.org/TR/2001/REC-SVG-20010904/DTD/svg10.dtd">
<svg version="1.0" xmlns="http://www.w3.org/2000/svg"
 width="681.000000pt" height="681.000000pt" viewBox="0 0 681.000000 681.000000"
 preserveAspectRatio="xMidYMid meet">
<metadata>
Created by potrace 1.14, written by Peter Selinger 2001-2017
</metadata>
<g transform="translate(0.000000,681.000000) scale(0.100000,-0.100000)"
fill="#000000" stroke="none">
<path d="M2225 6290 c-3 -5 -1 -10 4 -10 6 0 11 5 11 10 0 6 -2 10 -4 10 -3 0
-8 -4 -11 -10z"/>
<path d="M5380 6229 c0 -5 5 -7 10 -4 6 3 10 8 10 11 0 2 -4 4 -10 4 -5 0 -10
-5 -10 -11z"/>
<path d="M3345 6169 c-32 -5 -82 -17 -110 -26 l-50 -17 60 -7 c71 -7 127 -34
174 -83 25 -26 44 -36 65 -36 17 0 38 -4 45 -9 10 -6 27 -5 49 5 19 8 58 14
87 14 66 0 136 -43 177 -110 l29 -47 108 -21 c390 -77 787 -295 1077 -593 119
-123 240 -270 317 -386 102 -153 227 -438 292 -662 61 -213 68 -268 70 -559 3
-252 2 -262 -15 -247 -11 10 -20 12 -24 6 -4 -5 2 -14 11 -20 10 -5 18 -21 18
-35 1 -19 -2 -23 -12 -14 -13 11 -19 -3 -6 -16 4 -3 8 -14 9 -22 1 -9 -1 -13
-4 -9 -4 4 -7 10 -8 13 -2 20 -17 41 -26 36 -5 -3 -4 -11 3 -20 6 -8 8 -14 4
-14 -5 0 -1 -8 7 -17 20 -24 20 -53 -1 -45 -13 5 -14 3 -3 -10 9 -11 10 -23 2
-42 -5 -14 -6 -26 -3 -26 4 0 2 -5 -5 -12 -9 -9 -15 -9 -24 1 -11 10 -9 11 7
5 18 -7 19 -6 5 11 -9 11 -10 16 -2 11 6 -4 12 -3 12 3 0 5 -5 13 -11 16 -5 4
-8 12 -6 18 2 7 -2 19 -10 29 -11 12 -11 18 -2 24 8 4 10 3 5 -4 -4 -7 -2 -12
3 -12 6 0 11 6 11 13 0 8 3 7 10 -3 5 -8 12 -11 16 -7 7 7 -13 37 -24 35 -19
-2 -23 3 -13 16 8 10 9 16 2 21 -7 4 -5 15 7 33 16 25 16 26 -1 19 -9 -3 -17
-2 -17 4 0 6 -5 7 -10 4 -8 -5 -8 -11 0 -20 8 -10 8 -15 0 -20 -8 -5 -8 -10 0
-20 8 -10 8 -15 -2 -21 -7 -4 -10 -4 -6 1 4 4 3 14 -3 21 -7 8 -7 14 1 19 8 5
6 13 -7 27 -14 16 -15 22 -5 26 10 3 6 12 -12 31 -24 25 -24 27 -6 28 11 1 22
-2 25 -8 4 -5 -2 -6 -12 -2 -16 6 -16 5 -4 -10 11 -13 17 -15 28 -6 11 10 11
15 -3 30 -9 10 -21 16 -27 12 -6 -3 -7 -1 -3 5 7 11 -6 17 -27 13 -5 -1 -6 3
-2 9 4 7 12 7 24 0 10 -5 22 -6 26 -2 16 16 59 -3 48 -21 -3 -5 -13 -1 -22 7
-15 14 -18 14 -18 1 0 -8 5 -11 10 -8 6 3 7 1 3 -6 -5 -7 -2 -10 6 -9 7 2 12
-3 10 -10 -1 -8 2 -11 9 -6 8 5 9 3 4 -6 -6 -9 -4 -11 5 -5 9 6 11 4 5 -5 -6
-9 -4 -11 5 -5 7 4 15 2 20 -5 5 -9 9 -8 13 4 3 8 -3 26 -14 40 -11 14 -17 26
-14 26 4 0 2 6 -4 13 -6 8 -7 17 -3 21 4 4 8 12 8 17 1 5 2 10 4 12 12 15 1
41 -28 69 -20 18 -27 21 -14 7 23 -26 19 -48 -5 -28 -7 6 -13 8 -13 4 0 -4 -6
-2 -14 4 -11 9 -16 9 -22 0 -5 -8 -3 -9 7 -4 12 7 12 6 1 -7 -9 -11 -10 -18
-2 -23 10 -6 14 1 11 18 -1 5 3 6 9 2 6 -3 7 -11 4 -17 -5 -7 -2 -8 6 -3 10 6
11 4 4 -6 -17 -27 -14 -42 5 -25 10 9 21 13 24 9 10 -9 -14 -34 -26 -26 -6 4
-7 1 -2 -7 5 -8 -6 -4 -23 9 -18 12 -32 25 -32 29 0 3 5 1 12 -6 20 -20 32
-13 13 8 -10 11 -23 17 -29 13 -6 -4 -5 0 2 9 7 9 9 19 4 22 -13 8 -12 55 1
63 5 3 7 1 4 -4 -4 -6 1 -17 10 -24 15 -12 16 -12 8 1 -6 8 -10 24 -10 35 -1
11 -6 19 -13 18 -7 -2 -12 0 -13 5 -5 44 -3 62 6 62 6 0 7 3 0 8 -5 4 -12 18
-14 32 -1 14 -8 28 -13 31 -6 4 -12 35 -15 70 -4 59 -11 85 -34 131 -11 22
-44 121 -59 178 -7 25 -15 47 -19 50 -4 3 -22 44 -40 93 -19 48 -35 86 -37 85
-1 -2 15 -55 36 -118 82 -242 120 -523 100 -724 -32 -331 -126 -623 -289 -903
-48 -83 -74 -119 -89 -121 -24 -4 -41 22 -37 58 2 14 4 28 4 32 1 4 8 5 16 2
8 -4 15 -1 15 6 0 6 -5 8 -12 4 -8 -5 -9 -2 -5 9 10 28 -1 19 -18 -12 -8 -17
-37 -59 -64 -95 -48 -64 -49 -66 -29 -77 19 -10 20 -9 16 15 -3 15 -1 29 5 33
5 3 7 1 4 -4 -4 -6 1 -14 11 -19 27 -12 62 -14 62 -3 0 6 -4 7 -10 4 -6 -3
-10 2 -10 12 -1 17 -1 17 -14 1 -7 -10 -16 -15 -19 -11 -4 3 1 12 10 18 14 10
15 16 5 28 -10 12 -8 19 8 38 l21 24 -15 -26 c-15 -24 -15 -27 6 -45 13 -10
17 -12 11 -4 -19 21 -15 35 5 18 9 -9 23 -17 31 -20 9 -3 3 -15 -21 -41 -20
-20 -33 -37 -30 -37 2 0 -1 -7 -8 -15 -9 -11 -16 -13 -23 -6 -7 7 -5 16 4 27
9 12 10 15 2 10 -8 -4 -13 -2 -13 6 0 10 -3 9 -9 -1 -6 -9 -6 -22 -1 -32 5 -9
6 -19 3 -23 -3 -3 0 -6 7 -6 8 0 -1 -15 -20 -35 -18 -19 -38 -31 -43 -28 -6 3
-7 1 -3 -5 3 -6 -5 -19 -19 -30 -13 -11 -22 -21 -20 -24 7 -7 -117 -113 -127
-110 -5 1 -7 -2 -4 -7 8 -12 -34 -42 -47 -34 -6 3 -7 1 -4 -4 9 -14 -19 -37
-34 -27 -7 4 -9 3 -5 -4 6 -10 -141 -120 -239 -176 -42 -25 -46 -30 -30 -36
11 -4 26 -2 34 4 12 9 13 8 6 -4 -7 -12 -6 -13 7 -3 8 7 19 9 23 5 5 -4 5 -1
1 6 -4 6 -2 12 4 12 7 0 23 9 37 19 13 11 31 17 39 14 9 -3 14 1 14 12 0 9 5
13 10 10 6 -3 10 0 10 7 1 8 6 6 15 -6 15 -19 15 -19 15 2 0 24 15 30 23 10 3
-7 6 -2 7 12 1 23 3 22 14 -9 10 -27 14 -31 19 -18 3 9 4 24 1 32 -6 15 6 20
36 15 11 -1 10 4 -5 21 l-20 24 23 -20 23 -19 -22 -17 c-14 -11 -18 -18 -10
-23 6 -4 11 -2 11 4 0 6 5 8 10 5 6 -3 10 -1 10 5 0 6 5 8 12 4 7 -4 8 -3 4 4
-5 8 1 12 14 12 13 0 20 5 17 13 -2 6 -15 11 -28 10 -13 -1 -18 1 -11 4 10 4
10 8 0 21 -11 15 -10 15 14 -1 15 -9 29 -13 33 -8 3 5 0 11 -7 13 -7 3 -5 7 6
11 9 4 15 3 11 -2 -9 -16 15 -24 31 -10 12 10 12 14 2 21 -8 6 -4 7 12 2 33
-9 51 -24 43 -37 -3 -5 -1 -7 5 -4 14 9 10 32 -12 56 -11 12 -14 21 -7 26 10
6 15 -1 12 -17 0 -5 6 -8 14 -8 8 0 17 0 20 0 3 0 5 3 6 8 0 4 9 16 20 28 10
11 16 24 12 28 -4 3 -8 14 -9 22 -2 13 1 13 18 -2 19 -18 20 -18 40 6 11 14
17 19 13 13 -3 -7 -1 -13 4 -13 16 0 13 16 -4 30 -8 7 -15 18 -15 24 0 8 3 8
8 0 4 -6 16 -14 26 -18 20 -7 20 -7 0 15 -13 16 -15 21 -4 17 46 -18 55 -20
40 -9 -8 6 -11 11 -6 11 5 0 3 6 -3 13 -8 11 -6 18 9 32 20 18 21 18 40 -1 16
-16 17 -21 4 -32 -9 -8 -14 -9 -14 -2 0 6 -5 8 -10 5 -6 -4 -8 -11 -4 -16 3
-6 -2 -20 -13 -31 -10 -12 -13 -18 -6 -15 6 4 14 3 18 -2 3 -6 -6 -8 -21 -5
-16 3 -23 1 -19 -6 3 -5 1 -10 -4 -10 -18 0 -13 -18 11 -40 12 -11 29 -18 39
-15 10 3 20 1 24 -5 4 -6 15 -8 25 -5 10 3 25 -1 33 -10 10 -9 18 -11 22 -5 3
5 1 10 -5 10 -6 0 -8 5 -5 11 5 7 14 5 29 -5 20 -13 24 -12 36 7 8 12 14 33
15 47 1 30 21 68 31 58 4 -4 1 -16 -7 -25 -12 -16 -12 -17 2 -6 12 10 18 10
27 1 12 -12 51 -19 50 -9 -2 18 3 24 11 13 6 -11 10 -10 15 4 4 10 4 15 0 11
-4 -4 -13 -2 -20 4 -15 12 -7 42 9 32 6 -3 7 -1 3 5 -4 7 -2 12 4 12 7 0 5 7
-4 16 -20 19 -21 38 -2 31 15 -6 16 17 1 30 -4 4 -5 2 -1 -4 4 -7 2 -13 -3
-13 -16 0 -13 16 4 30 10 8 15 9 15 2 0 -7 7 -9 17 -5 11 4 14 3 9 -5 -4 -8
-2 -10 7 -6 17 6 28 -17 17 -36 -5 -7 -13 -9 -21 -4 -12 6 -12 5 0 -9 15 -18
3 -23 -17 -7 -9 7 -9 7 -2 -2 6 -7 5 -18 -1 -30 -5 -10 -8 -18 -7 -19 29 -8
39 -6 29 4 -15 15 -14 24 4 31 22 8 67 -40 51 -53 -7 -6 -16 -8 -20 -4 -4 4
-4 0 0 -10 4 -11 0 -19 -10 -23 -9 -3 -13 -10 -10 -15 3 -5 0 -9 -5 -9 -6 0
-11 -5 -11 -11 0 -6 -7 -17 -15 -26 -12 -12 -19 -13 -30 -3 -11 9 -15 9 -15 1
0 -6 5 -11 10 -11 17 0 11 -17 -16 -49 -15 -18 -20 -31 -13 -31 7 0 10 -3 7
-6 -4 -3 -15 -1 -26 5 -17 9 -19 7 -16 -15 2 -18 -2 -24 -11 -20 -9 3 -12 0
-8 -10 3 -9 -1 -14 -13 -14 -9 0 -14 -3 -11 -7 4 -3 -1 -16 -10 -27 -10 -11
17 11 59 48 43 38 75 73 71 79 -3 6 -1 7 4 4 6 -4 22 8 36 26 14 17 33 41 44
52 73 78 177 235 257 386 232 441 313 1045 215 1604 -37 212 -151 543 -260
756 -170 331 -501 672 -866 892 -261 158 -595 282 -903 337 -140 25 -496 36
-605 19z m373 -86 c-15 -2 -42 -2 -60 0 -18 2 -6 4 27 4 33 0 48 -2 33 -4z
m213 -19 c144 -25 304 -67 416 -111 85 -34 103 -38 108 -25 5 13 9 12 28 -5
12 -12 45 -32 72 -46 61 -32 55 -35 -10 -6 -51 23 -91 19 -98 -9 -3 -10 -5 -6
-6 11 -1 25 -9 32 -63 56 -122 55 -304 103 -513 135 -49 8 -76 14 -59 15 17 1
73 -6 125 -15z m749 -244 c33 -17 60 -33 60 -35 0 -5 -119 52 -129 61 -13 12
16 1 69 -26z m260 -158 c131 -90 184 -134 338 -280 73 -69 150 -133 171 -143
65 -29 77 -69 35 -114 -21 -23 -28 -25 -35 -14 -5 9 -9 10 -9 2 0 -16 -30 -21
-56 -10 -48 21 -58 95 -17 133 l27 25 -73 70 c-40 38 -77 66 -83 63 -6 -4 -8
-3 -5 3 13 21 -151 161 -325 275 -168 112 -170 113 -113 82 28 -15 93 -56 145
-92z m626 -627 c73 -112 163 -302 213 -449 23 -65 41 -123 40 -130 0 -6 -22
52 -49 128 -56 160 -139 335 -207 439 -66 99 -65 97 -58 97 3 0 30 -38 61 -85z
m284 -676 c12 -44 19 -83 17 -85 -2 -3 -12 24 -21 58 -8 35 -19 73 -22 86 -4
12 -4 22 -1 22 3 0 15 -36 27 -81z m27 -121 c-3 -8 -6 -5 -6 6 -1 11 2 17 5
13 3 -3 4 -12 1 -19z m10 -50 c-3 -7 -5 -2 -5 12 0 14 2 19 5 13 2 -7 2 -19 0
-25z m10 -55 c-3 -10 -5 -4 -5 12 0 17 2 24 5 18 2 -7 2 -21 0 -30z m27 -170
c9 -78 15 -188 14 -245 -1 -99 -1 -97 -9 47 -4 83 -12 188 -18 235 -12 92 -13
116 -7 109 3 -2 12 -68 20 -146z m-20 -344 c-2 -4 0 -10 6 -14 6 -4 7 -12 3
-18 -4 -7 -8 -15 -8 -19 0 -5 -3 -7 -6 -5 -3 1 -13 -4 -22 -11 -12 -11 -17
-11 -23 0 -4 7 -4 10 1 6 11 -10 37 11 29 24 -3 5 -11 5 -19 -2 -10 -8 -15 -8
-21 2 -4 7 -4 10 1 6 4 -4 14 -3 21 3 8 7 14 7 19 -1 3 -6 11 -8 16 -4 6 4 4
13 -5 23 -14 15 -14 18 -1 18 8 0 12 -4 9 -8z m-229 -39 c9 15 24 3 20 -18 -2
-9 -4 -19 -4 -21 -1 -3 -6 0 -13 7 -9 9 -15 9 -27 -1 -14 -10 -14 -10 -4 4 10
12 10 18 0 29 -10 12 -9 12 5 2 11 -9 18 -10 23 -2z m262 -49 c0 -11 -5 -18
-9 -15 -4 3 -5 11 -1 19 7 21 12 19 10 -4z m-336 -18 c13 -16 12 -17 -3 -4
-10 7 -18 15 -18 17 0 8 8 3 21 -13z m81 5 c-9 -9 -9 -15 1 -27 11 -14 10 -14
-6 -2 -13 10 -15 17 -6 27 6 8 14 14 17 14 3 0 1 -5 -6 -12z m174 -31 c-1 -7
-4 -16 -7 -22 -4 -5 -5 -18 -4 -28 3 -15 1 -16 -11 -6 -13 10 -13 14 1 29 8 9
12 20 8 24 -4 3 -8 13 -9 22 -2 11 1 12 11 4 7 -6 12 -16 11 -23z m84 -6 c0
-8 -1 -12 -3 -10 -1 2 -11 15 -22 28 l-20 24 23 -14 c12 -8 22 -20 22 -28z
m-30 -31 c-7 -13 -6 -20 5 -24 8 -3 15 -11 14 -18 0 -10 -2 -10 -6 0 -2 6 -9
10 -14 6 -5 -3 -9 0 -9 6 0 6 -6 10 -13 8 -7 -2 -13 2 -13 7 0 6 6 9 13 7 19
-4 16 15 -3 22 -14 5 -14 9 -3 22 12 14 14 14 26 -1 8 -12 9 -23 3 -35z m-199
-12 c9 -16 8 -19 -3 -13 -28 16 -38 28 -32 36 7 12 21 3 35 -23z m-126 -50
c-1 -13 -6 -21 -11 -19 -5 1 -7 8 -5 15 2 6 4 16 4 23 0 7 3 10 7 8 4 -2 6
-14 5 -27z m299 7 c-4 -8 -2 -15 4 -15 6 0 12 6 15 13 3 6 4 1 4 -13 -1 -14
-8 -31 -17 -37 -13 -11 -13 -14 0 -24 11 -8 12 -12 2 -16 -6 -2 -9 -9 -6 -14
3 -6 12 -2 20 8 12 17 13 17 14 1 0 -10 -5 -18 -10 -18 -6 0 -8 -11 -6 -25 3
-14 -2 -31 -10 -40 -12 -12 -12 -15 -2 -15 9 0 10 -2 2 -8 -7 -4 -10 -22 -8
-42 2 -19 0 -30 -4 -25 -9 13 -32 17 -32 6 0 -5 7 -12 16 -15 10 -4 13 -13 9
-27 -4 -12 -9 -29 -10 -38 -2 -9 -4 -16 -5 -16 -1 0 -3 -13 -4 -30 -1 -16 -8
-40 -14 -51 -6 -12 -8 -25 -4 -29 4 -5 1 -5 -6 -1 -7 4 -10 12 -7 17 3 5 -1 6
-10 3 -14 -6 -14 -9 -2 -23 9 -10 12 -23 7 -36 -4 -11 -6 -23 -3 -27 6 -12
-15 -9 -22 2 -4 7 -12 7 -24 0 -14 -7 -23 -5 -36 10 -22 25 -36 26 -29 3 5
-15 4 -16 -5 -3 -8 11 -7 18 5 27 17 13 8 22 -19 18 -9 -2 -15 0 -12 5 4 7 27
7 45 0 3 -1 9 -2 14 -1 5 1 4 -4 -2 -12 -9 -11 -8 -18 6 -31 10 -9 22 -13 25
-10 4 4 -1 12 -10 19 -13 9 -13 14 -3 20 9 6 11 4 5 -5 -6 -10 -4 -12 9 -7 12
5 15 3 10 -6 -4 -6 -4 -9 1 -5 4 4 15 2 24 -5 14 -10 14 -10 3 5 -10 12 -10
18 -1 24 9 5 7 11 -6 21 -11 7 -24 13 -29 13 -6 -1 0 -7 13 -14 13 -7 19 -16
14 -19 -6 -4 -23 8 -39 25 -16 18 -22 27 -13 20 13 -10 19 -9 29 3 12 14 7 20
-15 15 -5 -1 -7 2 -2 6 4 4 -1 17 -10 28 -18 21 -18 21 4 3 12 -11 23 -14 27
-8 4 5 -3 16 -15 25 -22 15 -22 15 -1 13 11 0 19 -4 16 -8 -2 -4 0 -11 6 -14
8 -5 8 -11 0 -20 -7 -8 -7 -16 -2 -19 16 -10 33 21 28 50 -3 16 -1 31 4 34 6
4 1 15 -10 28 -23 25 -27 40 -5 22 8 -6 20 -8 27 -4 10 6 9 3 -1 -9 -12 -15
-11 -17 3 -17 9 0 16 4 16 10 0 5 8 7 18 3 15 -6 15 -4 -2 15 -11 12 -16 25
-13 29 4 3 0 14 -9 24 -9 10 -11 19 -5 23 5 4 12 2 16 -4 4 -6 11 -8 16 -4 6
3 3 12 -8 20 -15 11 -15 13 -2 8 27 -9 31 13 7 31 -13 8 -24 20 -24 25 -1 6
-2 13 -3 16 0 4 -9 0 -18 -7 -17 -13 -17 -12 0 7 15 18 15 23 4 32 -8 7 -18 8
-22 4 -5 -4 -5 -1 -1 6 5 7 11 11 14 8 8 -9 42 25 36 36 -3 5 5 17 18 28 28
24 29 24 22 5z m31 -65 c3 -5 2 -10 -4 -10 -5 0 -13 5 -16 10 -3 6 -2 10 4 10
5 0 13 -4 16 -10z m-344 -73 c-10 -9 -11 -8 -5 6 3 10 9 15 12 12 3 -3 0 -11
-7 -18z m-10 -100 c-10 -9 -11 -8 -5 6 3 10 9 15 12 12 3 -3 0 -11 -7 -18z m0
-44 c12 -16 12 -17 -2 -6 -9 7 -20 9 -24 5 -5 -4 -5 -1 -1 6 9 16 11 15 27 -5z
m109 -4 c0 -4 -8 -13 -17 -18 -10 -6 -12 -11 -5 -11 6 0 12 -5 12 -11 0 -8 -5
-8 -15 1 -17 14 -21 0 -4 -17 8 -8 5 -13 -10 -18 -12 -3 -21 -12 -21 -18 0 -7
-4 -6 -9 3 -12 18 -3 33 16 26 10 -4 13 -1 8 13 -3 11 -1 22 5 26 6 3 8 11 5
16 -4 5 2 6 12 2 16 -6 16 -5 4 10 -12 15 -12 17 3 11 9 -3 16 -10 16 -15z
m99 -22 c0 -9 -2 -8 -6 1 -2 6 -10 9 -15 6 -7 -4 -8 -2 -4 5 9 13 26 5 25 -12z
m-28 -30 c-10 -9 -11 -8 -5 6 3 10 9 15 12 12 3 -3 0 -11 -7 -18z m44 4 c-3
-6 -11 -11 -16 -11 -5 0 -4 6 3 14 14 16 24 13 13 -3z m-151 -56 c-4 -8 -11
-15 -16 -15 -6 0 -5 6 2 15 7 8 14 15 16 15 2 0 1 -7 -2 -15z m-18 -42 c-3 -3
-12 2 -21 11 -9 9 -21 16 -27 16 -5 0 4 -14 22 -30 29 -28 32 -35 27 -73 -8
-58 -61 -107 -115 -107 -49 0 -79 22 -93 69 -21 72 35 146 109 143 20 -1 44 3
52 8 10 6 20 3 33 -11 11 -11 17 -23 13 -26z m187 -139 c-3 -7 -9 -12 -13 -9
-4 3 -11 -2 -14 -11 -3 -8 -2 -12 3 -9 5 3 13 0 17 -6 5 -8 3 -9 -5 -5 -8 5
-11 3 -10 -5 1 -8 -3 -27 -10 -43 -11 -28 -12 -28 -31 -11 -24 22 -18 34 7 14
9 -8 14 -9 10 -2 -4 6 -2 13 5 15 7 3 9 11 3 24 -4 10 -7 23 -6 27 1 4 -8 3
-19 -3 -23 -12 -27 -22 -6 -14 18 7 31 -15 17 -29 -8 -8 -11 -8 -11 0 0 6 -6
13 -14 16 -9 4 -12 -2 -10 -19 2 -20 -1 -22 -16 -14 -13 7 -20 6 -24 -3 -3 -8
-11 -4 -26 12 -19 22 -20 25 -4 42 10 11 14 19 9 19 -4 0 -2 7 5 15 12 14 15
14 32 -1 18 -17 18 -18 -9 -46 -15 -15 -22 -28 -17 -28 6 0 25 16 44 35 30 31
32 40 8 37 -3 -1 -12 6 -20 16 -12 15 -11 16 5 3 12 -10 17 -10 17 -2 0 7 8
10 18 7 9 -3 24 -1 32 4 18 11 41 -6 33 -26z m-418 -33 c-3 -5 -1 -12 5 -16 6
-3 13 1 16 9 3 9 10 16 15 16 4 0 6 -7 2 -15 -3 -10 -1 -15 8 -13 7 2 14 -6
16 -17 1 -11 0 -14 -3 -7 -8 18 -24 4 -18 -16 5 -14 4 -14 -4 -3 -6 8 -8 21
-4 29 4 11 1 14 -11 9 -16 -6 -41 15 -30 26 9 10 15 8 8 -2z m231 -78 c4 4 14
2 21 -5 11 -9 16 -9 23 1 9 16 68 22 77 8 10 -16 12 -57 3 -57 -14 0 -21 18
-9 22 7 2 6 8 -3 16 -12 9 -14 8 -13 -7 1 -11 7 -26 14 -35 17 -21 3 -21 -20
0 -10 9 -15 22 -13 29 3 7 -2 15 -11 19 -10 4 -14 2 -9 -6 5 -7 3 -8 -7 -2 -8
4 -2 -7 14 -25 15 -18 25 -37 22 -42 -4 -5 1 -6 10 -3 11 5 14 2 9 -10 -4 -10
-13 -15 -22 -11 -11 4 -12 2 -4 -8 15 -17 0 -39 -21 -31 -23 8 -22 28 1 20 14
-5 14 -4 -2 9 -19 14 -19 16 -3 28 16 11 16 14 2 32 -9 11 -14 14 -10 8 4 -9
1 -11 -11 -6 -13 5 -16 3 -11 -10 4 -11 2 -14 -9 -10 -7 3 -14 9 -14 15 0 5
-4 6 -10 3 -6 -4 -5 -11 3 -19 6 -8 15 -12 18 -10 4 2 10 -3 13 -12 5 -12 2
-15 -11 -10 -17 6 -17 5 0 -8 11 -8 14 -17 8 -20 -5 -4 -12 -2 -16 4 -4 6 -11
7 -17 4 -6 -4 -6 1 1 14 8 15 7 23 -4 32 -9 7 -19 10 -22 6 -4 -4 -1 -11 7
-16 11 -7 11 -11 1 -23 -9 -12 -9 -16 0 -19 7 -2 9 -10 5 -16 -13 -21 -27 -13
-22 13 5 28 -5 33 -23 11 -9 -11 -9 -15 1 -19 8 -2 9 -8 4 -13 -5 -5 -11 -4
-13 4 -3 6 -9 10 -14 7 -15 -10 15 -33 38 -29 12 2 25 0 28 -6 3 -5 1 -10 -6
-10 -7 0 -8 -4 -2 -12 8 -11 9 -22 4 -44 0 -3 -6 -2 -11 1 -8 5 -7 11 1 21 6
8 9 14 5 14 -16 0 -21 -3 -19 -11 2 -4 -5 -6 -15 -3 -16 5 -16 5 0 -9 16 -13
16 -15 -7 -37 -27 -25 -36 -12 -10 14 10 9 11 17 5 21 -6 4 -8 11 -5 16 4 5 2
9 -3 9 -17 0 -22 -13 -10 -29 10 -13 10 -14 -2 -3 -16 14 -34 16 -26 3 6 -9
-37 -7 -54 4 -6 4 -19 1 -28 -7 -15 -12 -16 -11 -3 5 9 12 21 15 35 11 19 -6
20 -5 6 12 -14 18 -14 18 3 5 15 -12 21 -9 19 10 -1 4 9 5 21 2 21 -4 21 -4 3
11 -10 8 -24 13 -30 9 -6 -3 -1 5 12 19 12 13 20 27 17 30 -3 2 2 5 10 5 12 0
10 -6 -7 -24 -12 -12 -17 -23 -11 -23 16 0 56 48 49 59 -5 7 -1 8 11 4 16 -6
16 -5 4 10 -7 9 -17 15 -21 12 -5 -3 -11 -1 -15 5 -4 6 -11 7 -17 4 -7 -4 -8
-2 -4 5 6 8 12 9 20 2 7 -6 15 -9 18 -6 3 3 11 -1 18 -10 7 -8 17 -15 23 -15
5 0 2 10 -9 22 -10 12 -13 18 -5 13 11 -6 13 -4 8 9 -6 14 -3 15 13 6 14 -8
20 -8 20 0 0 7 8 9 22 4 20 -6 21 -5 9 10 -11 12 -17 14 -28 5 -10 -9 -18 -8
-31 5 -10 9 -22 13 -27 9 -4 -5 -5 -2 -1 5 4 7 13 9 19 5 7 -4 20 -9 30 -10
16 -3 16 -1 1 25 -14 24 -14 25 0 8 9 -11 19 -17 22 -13z m-258 -22 c-7 -12
-16 -21 -21 -21 -4 0 0 11 10 24 22 29 30 27 11 -3z m62 19 c13 -8 13 -10 -2
-10 -9 0 -20 5 -23 10 -8 13 5 13 25 0z m-97 -65 c-7 -21 -12 -19 -10 4 0 11
5 18 9 15 4 -3 5 -11 1 -19z m104 18 c-4 -3 -1 -13 6 -22 11 -14 10 -14 -5 -2
-16 12 -23 10 -15 -4 1 -2 -7 -10 -17 -18 -12 -8 -16 -19 -11 -26 6 -10 3 -10
-16 0 -21 11 -22 13 -6 18 10 4 18 10 18 14 -2 20 0 30 5 24 4 -3 13 0 21 8 8
8 17 15 20 15 4 0 3 -3 0 -7z m253 -28 c0 -2 -6 -5 -13 -8 -8 -3 -14 1 -14 8
0 7 6 11 14 8 7 -3 13 -6 13 -8z m-330 -5 c0 -5 -5 -10 -11 -10 -5 0 -7 5 -4
10 3 6 8 10 11 10 2 0 4 -4 4 -10z m-26 -29 c-2 -3 -12 3 -22 13 -16 17 -16
18 5 5 12 -7 20 -15 17 -18z m151 -1 c4 -6 1 -9 -7 -8 -7 2 -12 -3 -10 -10 1
-8 -2 -11 -8 -7 -8 5 -7 11 1 21 14 17 16 17 24 4z m-179 -11 c3 -6 1 -15 -6
-19 -7 -4 -9 -13 -6 -19 4 -6 4 -11 -1 -10 -13 3 -43 -12 -39 -20 2 -3 -5 -15
-15 -25 -11 -11 -19 -14 -19 -8 0 6 5 14 10 17 6 4 8 16 5 28 -2 12 -2 17 1
10 3 -7 12 -9 19 -7 12 5 12 10 -1 32 -10 17 -11 21 -2 10 10 -12 18 -14 32
-6 15 8 16 12 5 19 -9 6 -10 9 -2 9 6 0 15 -5 19 -11z m64 -19 c0 -5 -2 -10
-4 -10 -3 0 -8 5 -11 10 -3 6 -1 10 4 10 6 0 11 -4 11 -10z m-17 -34 c-3 -4
-9 -2 -14 5 -13 22 -11 31 5 17 8 -7 12 -17 9 -22z m329 19 c11 -7 14 -16 8
-25 -8 -13 -12 -12 -27 4 -17 18 -17 19 0 13 10 -4 15 -3 12 2 -3 6 -14 9 -25
8 -21 -1 -16 -15 12 -35 18 -13 15 -38 -3 -26 -6 3 -9 0 -8 -7 4 -19 -10 -59
-20 -59 -13 0 -32 26 -24 33 3 4 13 1 22 -5 10 -8 9 -4 -3 10 -20 23 -10 31
13 10 11 -11 12 -10 5 2 -5 8 -9 18 -9 22 0 3 -4 10 -9 15 -5 5 -6 2 -1 -6 6
-10 4 -12 -4 -7 -9 6 -9 11 -1 21 8 10 8 15 -1 21 -8 5 -9 3 -4 -6 5 -9 4 -11
-4 -6 -9 6 -9 11 -1 21 13 16 48 16 72 0z m-348 -34 c16 -18 16 -19 0 -17 -9
0 -19 -5 -22 -13 -3 -8 0 -11 6 -7 6 3 13 2 17 -3 3 -6 -4 -8 -16 -6 -15 3
-19 0 -15 -11 3 -8 2 -13 -3 -10 -9 6 -47 -44 -43 -56 1 -5 -3 -8 -9 -8 -6 0
-7 -6 -2 -12 4 -7 -5 -5 -19 4 -21 14 -28 15 -37 5 -7 -9 -7 -17 1 -27 8 -12
9 -12 4 2 -8 27 12 31 25 6 6 -13 8 -20 4 -16 -5 4 -14 3 -22 -3 -10 -9 -17
-8 -28 1 -10 8 -15 9 -15 2 0 -13 35 -34 43 -26 3 3 8 1 11 -5 4 -6 -2 -8 -13
-6 -20 4 -61 23 -61 29 0 11 132 136 144 136 9 0 16 5 16 11 0 5 -5 7 -12 3
-7 -5 -8 -3 -2 7 7 12 27 37 30 39 0 0 9 -9 18 -19z m-124 -55 c0 -2 -8 -10
-17 -17 -16 -13 -17 -12 -4 4 13 16 21 21 21 13z m256 -23 c-3 -6 0 -13 6 -15
6 -2 3 -10 -6 -17 -14 -12 -16 -12 -10 3 4 12 2 15 -9 10 -8 -3 -18 -1 -22 5
-4 7 1 8 12 4 16 -6 16 -5 5 10 -12 14 -11 16 7 14 13 -1 19 -7 17 -14z m35 5
c0 -10 2 -10 6 0 8 20 25 14 18 -7 -7 -23 14 -40 25 -21 5 7 15 10 25 6 15 -5
16 -4 6 8 -20 24 5 27 27 3 18 -19 19 -24 6 -41 -13 -18 -15 -19 -33 -2 -12
11 -21 14 -25 7 -5 -7 -19 -2 -41 12 -33 21 -47 47 -25 47 6 0 10 -6 11 -12z
m-104 -5 c-4 -3 1 -15 10 -25 16 -18 16 -18 0 -12 -13 5 -16 2 -11 -12 4 -14
3 -15 -3 -6 -8 10 -12 10 -23 -3 -11 -13 -10 -19 5 -33 17 -16 17 -16 12 0 -4
12 -2 15 9 11 10 -4 12 -9 5 -16 -6 -6 -5 -14 5 -24 12 -13 12 -17 0 -35 -8
-11 -12 -27 -9 -35 8 -20 -17 -35 -34 -21 -7 6 -11 14 -8 18 10 16 -30 21 -41
5 -7 -10 -18 -13 -30 -8 -18 6 -18 6 -1 -14 19 -22 22 -33 6 -33 -5 0 -7 6 -3
13 4 6 -2 3 -14 -7 -12 -11 -25 -16 -29 -12 -5 4 0 12 10 18 15 8 16 12 5 25
-15 18 -20 45 -7 37 5 -3 7 -10 4 -15 -4 -5 -2 -9 3 -9 18 0 21 14 6 31 -10
11 -12 19 -4 24 5 3 8 10 6 14 -3 4 1 8 9 8 11 0 12 -4 4 -14 -7 -8 -8 -13 -1
-13 15 0 33 26 24 36 -4 4 1 2 10 -5 18 -13 38 -8 38 10 0 6 -4 8 -9 4 -5 -3
-12 -1 -15 3 -3 5 10 22 29 38 34 28 49 53 23 38 -9 -5 -9 -2 1 9 7 9 16 17
19 17 3 0 2 -3 -1 -7z m-39 -38 c-3 -3 -9 2 -12 12 -6 14 -5 15 5 6 7 -7 10
-15 7 -18z m152 0 c6 -8 9 -19 6 -24 -4 -5 -2 -13 4 -16 6 -4 10 -3 9 2 -4 20
2 24 18 12 10 -8 14 -9 10 -2 -13 22 10 23 29 1 19 -21 19 -21 0 -14 -15 5
-17 4 -7 -7 9 -11 8 -17 -4 -27 -8 -7 -12 -16 -9 -21 9 -15 -13 -10 -26 6 -7
8 -17 15 -23 15 -6 0 -1 -7 11 -16 25 -17 29 -34 8 -34 -7 0 -21 11 -30 25 -9
14 -12 25 -7 25 14 0 4 43 -12 55 -14 10 -12 35 3 35 4 0 13 -7 20 -15z m-285
-145 c-3 -5 3 -15 14 -22 18 -11 18 -13 3 -24 -13 -10 -14 -15 -5 -25 9 -9 16
-9 25 -2 9 8 16 7 25 -2 10 -10 9 -16 -3 -26 -8 -6 -18 -9 -21 -5 -4 4 -1 11
7 16 9 6 10 10 3 10 -6 0 -15 -5 -19 -11 -4 -8 -9 -7 -15 2 -5 9 -9 10 -9 3 0
-7 -7 -15 -16 -18 -8 -3 -12 -2 -9 4 9 14 -9 12 -24 -2 -10 -11 -15 -9 -26 6
-8 10 -18 16 -23 12 -5 -3 -9 1 -9 9 0 10 5 11 18 4 26 -14 33 -11 18 8 -12
14 -10 14 14 -2 23 -15 30 -16 40 -5 9 10 9 11 0 6 -15 -8 -27 10 -13 19 8 5
7 12 -2 23 -12 15 -11 16 4 3 10 -7 15 -17 12 -22 -3 -5 -1 -9 5 -9 18 0 21
17 6 30 -13 11 -12 30 1 30 3 0 2 -4 -1 -10z m-265 -44 c0 -2 -7 -7 -16 -10
-8 -3 -12 -2 -9 4 6 10 25 14 25 6z m20 -41 c0 -2 -6 -5 -13 -8 -8 -3 -14 1
-14 8 0 7 6 11 14 8 7 -3 13 -6 13 -8z m-36 -21 c3 -8 2 -12 -4 -9 -6 3 -10
10 -10 16 0 14 7 11 14 -7z"/>
<path d="M5675 3571 c-3 -5 -2 -12 3 -15 5 -3 9 1 9 9 0 17 -3 19 -12 6z"/>
<path d="M5886 3481 c-3 -5 1 -11 9 -14 9 -4 12 -1 8 9 -6 16 -10 17 -17 5z"/>
<path d="M5855 3370 c-3 -5 -3 -10 1 -10 4 0 -3 -11 -15 -24 -14 -15 -19 -26
-12 -31 11 -6 13 -5 15 18 0 6 8 12 16 12 8 1 14 7 12 14 -1 7 2 10 7 7 5 -4
12 -2 15 3 3 5 -1 12 -10 15 -21 8 -22 8 -29 -4z"/>
<path d="M5853 3324 c4 -4 0 -15 -9 -25 -10 -11 -12 -19 -4 -24 5 -3 8 -9 6
-13 -2 -4 7 -15 19 -25 15 -10 26 -13 30 -7 3 5 1 10 -4 10 -6 0 -11 5 -11 11
0 5 5 7 11 3 8 -4 8 0 0 15 -7 11 -17 21 -23 21 -7 0 -7 -4 1 -14 9 -11 9 -16
-1 -22 -7 -4 -10 -4 -6 1 4 4 3 14 -3 21 -9 10 -7 15 5 20 21 8 20 20 -1 28
-10 4 -14 4 -10 0z"/>
<path d="M5844 3163 c18 -22 36 -22 36 -1 0 5 -6 8 -14 5 -7 -3 -20 0 -27 6
-7 7 -5 2 5 -10z"/>
<path d="M5824 3058 c-10 -12 -13 -18 -6 -14 7 4 12 1 12 -9 0 -10 -5 -13 -12
-9 -7 4 -8 3 -4 -5 4 -6 12 -9 17 -6 22 14 6 -11 -23 -36 -19 -15 -29 -31 -24
-36 5 -4 11 -2 13 5 3 6 8 10 13 7 19 -12 38 25 35 69 -1 29 1 43 8 39 6 -3 7
-1 3 5 -9 16 -10 16 -32 -10z m16 -72 c0 -2 -8 -10 -17 -17 -16 -13 -17 -12
-4 4 13 16 21 21 21 13z"/>
<path d="M5665 2820 c-3 -5 -3 -10 1 -10 4 0 -1 -9 -10 -19 -25 -28 -3 -35 23
-7 19 20 20 25 7 35 -10 8 -16 9 -21 1z m19 -9 c3 -5 -2 -15 -12 -22 -15 -12
-16 -12 -5 2 7 9 10 19 6 22 -3 4 -4 7 0 7 3 0 8 -4 11 -9z"/>
<path d="M5632 2690 c13 -20 28 -27 28 -12 0 4 -9 13 -20 20 -19 12 -20 11 -8
-8z"/>
<path d="M5507 2543 c-4 -3 -2 -12 4 -19 9 -11 5 -16 -14 -23 -14 -5 -28 -15
-32 -21 -4 -7 6 -5 23 4 17 9 34 21 38 27 4 8 9 7 15 -2 7 -12 11 -11 25 3 16
16 16 16 -2 14 -10 -2 -26 3 -35 10 -9 8 -19 11 -22 7z"/>
<path d="M5240 2451 c-15 -30 -13 -46 4 -31 8 6 12 19 9 27 -5 12 -3 14 7 8 9
-5 11 -4 6 3 -10 16 -14 15 -26 -7z"/>
<path d="M5325 2359 c-5 -7 -4 -10 2 -6 5 3 17 -3 26 -14 9 -10 16 -19 14 -20
-1 -1 -16 -2 -33 -3 -17 -1 -39 -7 -47 -15 -9 -7 -22 -10 -29 -6 -7 4 -3 -2 9
-13 12 -11 19 -23 15 -28 -4 -5 1 -2 11 5 9 7 17 19 17 25 0 6 -4 5 -9 -3 -5
-8 -11 -9 -15 -3 -3 6 0 12 6 15 14 4 63 -29 63 -44 0 -5 3 -9 8 -9 4 0 10 0
13 0 4 0 1 7 -6 15 -7 8 -8 15 -4 15 5 0 14 8 21 19 10 16 7 23 -22 51 -23 23
-35 28 -40 19z m59 -47 c3 -5 -3 -16 -14 -25 -15 -13 -21 -13 -30 -2 -8 10 -8
15 1 21 8 4 9 3 5 -4 -4 -7 -3 -12 2 -12 6 0 12 7 16 15 6 17 12 19 20 7z"/>
<path d="M5480 2401 c0 -6 4 -13 10 -16 6 -3 7 1 4 9 -7 18 -14 21 -14 7z"/>
<path d="M5155 2170 c-3 -6 1 -7 9 -4 18 7 21 14 7 14 -6 0 -13 -4 -16 -10z"/>
<path d="M1210 5595 c0 -8 4 -15 8 -15 5 0 9 7 9 15 0 8 -4 15 -9 15 -4 0 -8
-7 -8 -15z"/>
<path d="M3490 5455 c0 -113 2 -135 15 -135 12 0 15 15 15 74 0 40 3 101 6
135 7 58 6 61 -15 61 -20 0 -21 -4 -21 -135z"/>
<path d="M2593 5333 c-22 -8 -14 -31 43 -123 61 -98 71 -109 80 -87 3 8 -20
59 -51 113 -66 115 -57 102 -72 97z"/>
<path d="M4431 5288 c-49 -78 -91 -160 -86 -169 4 -5 1 -8 -6 -7 -7 2 -15 -5
-17 -14 -7 -34 27 -19 53 23 54 85 96 169 90 179 -10 15 -19 12 -34 -12z"/>
<path d="M6125 5300 c-3 -5 -3 -14 0 -20 12 -20 -114 -219 -140 -220 -15 0
-34 -35 -26 -48 23 -38 121 -19 173 35 42 43 58 79 58 129 0 58 -49 151 -65
124z"/>
<path d="M4760 5003 c0 -8 -38 -40 -204 -169 -49 -38 -123 -97 -165 -132 -42
-35 -83 -69 -93 -77 -9 -7 -20 -10 -24 -7 -21 18 62 -82 120 -144 67 -73 169
-147 218 -159 34 -9 34 -8 89 195 43 159 86 367 91 445 2 41 0 50 -14 53 -10
2 -18 0 -18 -5z"/>
<path d="M945 4753 c7 -48 28 -83 49 -83 6 0 3 5 -6 10 -9 6 -22 34 -28 65
-14 67 -25 73 -15 8z"/>
<path d="M1087 4719 c3 -24 7 -46 9 -48 9 -10 3 65 -5 78 -6 10 -8 -1 -4 -30z"/>
<path d="M4947 4664 c-59 -41 -107 -80 -107 -85 0 -31 38 -15 128 52 53 40 99
74 100 75 2 1 0 9 -5 18 -7 13 -27 2 -116 -60z"/>
<path d="M1941 4716 c-9 -10 9 -28 83 -85 51 -39 96 -71 100 -71 3 0 6 8 6 18
0 9 -34 43 -76 77 -97 76 -100 77 -113 61z"/>
<path d="M1041 4604 c-36 -26 -89 -31 -123 -13 -26 14 -38 1 -15 -16 11 -8 43
-14 73 -14 45 0 59 5 79 25 14 14 25 29 25 34 0 12 2 13 -39 -16z"/>
<path d="M5260 4611 c0 -6 4 -13 10 -16 6 -3 7 1 4 9 -7 18 -14 21 -14 7z"/>
<path d="M5280 4571 c0 -6 4 -13 10 -16 6 -3 7 1 4 9 -7 18 -14 21 -14 7z"/>
<path d="M5301 4535 c0 -5 6 -21 14 -35 8 -14 14 -20 14 -15 0 6 -6 21 -14 35
-8 14 -14 21 -14 15z"/>
<path d="M3722 4107 c-12 -13 -22 -30 -22 -39 0 -26 -27 -71 -33 -56 -4 10 -6
10 -6 0 -3 -44 60 -102 110 -102 27 0 84 35 104 63 16 22 19 66 9 105 -14 52
-123 71 -162 29z"/>
<path d="M2815 4108 c-102 -18 -223 -61 -340 -119 -66 -32 -129 -66 -140 -74
-17 -14 -18 -17 -4 -31 9 -8 119 -50 245 -94 163 -55 218 -78 192 -78 -73 0
-114 -12 -114 -32 0 -15 5 -18 25 -13 17 4 22 2 17 -6 -5 -7 11 -20 44 -35
l52 -24 -74 -43 c-378 -219 -614 -373 -796 -518 -118 -95 -130 -107 -112 -124
8 -7 10 -8 7 -1 -5 8 8 11 37 10 24 0 42 -5 39 -10 -3 -5 0 -6 8 -4 21 8 49
-10 43 -27 -4 -8 -10 -12 -15 -9 -5 3 -6 10 -3 16 5 7 2 8 -5 3 -9 -5 -10 -10
-2 -18 12 -12 42 -19 38 -9 -1 4 1 8 6 9 18 6 66 57 61 65 -3 5 -1 7 5 6 6 -2
105 93 221 211 165 169 212 211 223 203 7 -7 23 -10 35 -7 12 2 24 -1 27 -6 4
-5 11 -7 16 -4 12 8 60 -30 51 -40 -4 -5 -1 -5 6 -1 7 4 10 12 7 17 -4 5 -1 9
4 9 17 0 13 -9 -15 -44 -74 -91 -114 -146 -107 -146 4 0 28 19 53 41 25 23 36
35 25 28 -18 -13 -19 -13 -6 3 9 13 18 15 31 8 9 -5 20 -6 24 -3 7 7 17 9 79
17 27 4 37 2 34 -7 -2 -7 3 -21 12 -31 11 -14 12 -17 2 -11 -10 6 -12 4 -6 -6
5 -8 4 -11 -1 -6 -5 5 -9 13 -9 18 0 5 -3 9 -7 9 -5 0 -11 0 -14 0 -4 0 -2 -6
3 -12 14 -19 9 -43 -7 -40 -8 2 -12 0 -8 -4 4 -4 2 -14 -4 -23 -7 -9 17 11 53
45 179 170 193 170 71 4 -30 -41 -46 -67 -35 -57 20 18 21 17 41 -7 20 -26 40
-36 26 -14 -4 7 -3 8 4 4 15 -9 15 -5 2 29 -7 17 -7 24 0 20 6 -3 10 -13 10
-21 0 -8 5 -14 12 -14 7 0 -3 -16 -22 -35 -18 -19 -36 -32 -40 -30 -4 3 -14
-3 -21 -13 -13 -16 -12 -16 6 -2 20 14 20 14 1 -7 -10 -13 -23 -20 -29 -16 -5
3 -7 2 -4 -4 7 -11 -78 -118 -169 -213 -90 -94 -114 -120 -114 -127 0 -3 7 0
15 7 8 7 15 9 15 5 0 -5 8 -1 18 8 17 15 20 15 38 1 10 -8 14 -13 7 -10 -6 4
-14 2 -18 -3 -10 -17 38 -2 55 16 9 10 48 51 86 92 38 41 63 71 57 67 -19 -10
-16 -1 4 15 11 10 14 10 9 2 -14 -24 3 -13 46 29 24 23 36 38 28 34 -10 -6
-12 -6 -5 2 6 6 17 12 25 14 8 2 24 12 36 23 44 42 78 68 112 88 47 28 38 12
-63 -104 -44 -51 -79 -97 -78 -101 2 -4 -2 -7 -9 -5 -7 1 -12 -2 -13 -8 0 -5
-4 -16 -8 -22 -5 -7 -4 -13 0 -13 5 0 15 6 22 13 7 6 -5 -25 -28 -70 -23 -46
-40 -83 -39 -84 30 -9 57 -6 74 9 20 19 54 36 67 34 4 -1 7 3 7 9 0 5 4 8 10
4 8 -5 45 10 60 25 3 3 18 6 35 8 16 2 36 9 44 15 10 8 13 9 8 1 -4 -7 4 -14
20 -17 20 -4 32 1 45 16 10 11 18 16 18 11 0 -5 -26 -38 -57 -74 l-57 -65 55
53 c30 29 59 49 64 45 4 -5 5 -3 2 3 -9 16 29 49 38 34 5 -8 13 -6 28 7 11 10
17 12 12 4 -6 -10 -2 -10 16 2 34 21 79 30 79 16 0 -6 -12 -63 -26 -127 -14
-63 -24 -123 -21 -133 3 -11 0 -16 -8 -13 -8 3 -89 -76 -193 -187 -155 -165
-180 -195 -176 -218 3 -17 1 -21 -4 -13 -7 10 -12 9 -23 -4 -12 -15 -12 -17 0
-9 11 6 13 4 8 -8 -3 -10 -2 -17 2 -17 5 0 12 6 14 13 3 6 6 1 7 -13 1 -23 2
-23 10 -5 5 11 9 15 9 9 1 -10 28 -19 77 -26 16 -2 13 -31 -5 -45 -9 -7 -11
-13 -6 -13 6 0 34 21 61 48 45 42 57 62 101 177 28 72 59 155 69 185 9 30 24
65 31 77 8 12 11 28 7 35 -6 11 -5 11 8 0 13 -10 17 -10 22 3 3 9 10 13 16 10
6 -3 13 1 16 9 3 9 9 14 13 12 11 -7 52 14 46 24 -3 5 6 12 20 16 14 3 25 12
25 20 0 12 19 19 42 15 4 0 5 5 2 13 -3 8 -1 17 5 21 6 3 11 16 11 28 1 12 7
33 14 46 13 23 14 21 40 -56 27 -83 52 -118 73 -105 48 30 202 513 203 637 0
19 3 25 8 17 6 -9 12 -5 20 13 7 14 12 31 12 37 0 6 10 19 22 30 29 25 12 43
-26 28 -15 -5 -25 -14 -22 -18 2 -4 -3 -8 -12 -9 -9 0 -73 -10 -142 -21 l-125
-20 -55 48 c-30 27 -75 69 -99 94 -24 25 -49 42 -54 39 -6 -3 -7 -2 -4 4 3 5
-12 27 -33 48 l-40 39 -32 -30 c-32 -28 -32 -28 -9 -1 14 15 20 27 15 27 -5 0
-4 4 3 8 8 5 9 13 3 22 -7 10 -10 11 -10 3 0 -7 -4 -13 -8 -13 -5 0 -8 9 -8
19 1 10 -45 76 -101 145 -57 69 -103 135 -103 146 0 17 18 109 46 238 4 22 4
22 -118 21 -68 -1 -145 -5 -173 -11z m395 -611 c0 -2 -12 -14 -27 -28 l-28
-24 24 28 c23 25 31 32 31 24z m-715 -127 c3 -5 1 -10 -4 -10 -6 0 -11 5 -11
10 0 6 2 10 4 10 3 0 8 -4 11 -10z m120 -31 c-10 -15 -25 -10 -19 6 4 8 10 12
15 9 5 -3 7 -10 4 -15z m32 -94 c0 -8 -3 -13 -5 -10 -3 3 -12 -1 -21 -7 -10
-8 -9 -4 3 10 23 26 23 26 23 7z m194 -83 c-13 -19 -17 -33 -11 -40 6 -7 2 -5
-7 3 -16 14 -15 16 7 40 31 33 36 32 11 -3z m75 -9 c-2 -10 -11 -20 -22 -22
-19 -3 -19 -3 0 18 23 26 25 26 22 4z m354 -337 c0 -2 -8 -10 -17 -17 -16 -13
-17 -12 -4 4 13 16 21 21 21 13z m-600 -40 c0 -3 -4 -8 -10 -11 -5 -3 -10 -1
-10 4 0 6 5 11 10 11 6 0 10 -2 10 -4z m-96 -68 c-4 -5 -9 -7 -12 -4 -3 3 -12
0 -21 -7 -14 -10 -14 -10 -4 4 13 16 46 23 37 7z"/>
<path d="M3931 4038 c0 -21 1 -38 4 -38 14 0 63 30 76 46 9 11 2 9 -19 -6 -33
-25 -46 -21 -55 15 -3 11 -5 4 -6 -17z"/>
<path d="M3568 3872 c-106 -109 -247 -275 -241 -285 3 -6 1 -7 -5 -3 -6 3 -14
1 -17 -4 -10 -16 25 -51 46 -48 16 3 319 334 319 349 0 3 -10 15 -23 27 l-23
22 -56 -58z"/>
<path d="M1600 3705 c0 -13 21 -15 130 -15 109 0 130 2 130 15 0 13 -21 15
-130 15 -109 0 -130 -2 -130 -15z"/>
<path d="M5110 3705 c0 -13 21 -15 125 -15 104 0 125 2 125 15 0 13 -21 15
-125 15 -104 0 -125 -2 -125 -15z"/>
<path d="M5380 3472 c0 -17 4 -34 10 -37 6 -4 7 6 3 27 -8 44 -13 48 -13 10z"/>
<path d="M5714 3486 c1 -8 5 -18 8 -22 4 -3 5 1 4 10 -1 8 -5 18 -8 22 -4 3
-5 -1 -4 -10z"/>
<path d="M5640 3415 c-7 -8 -9 -15 -5 -15 4 0 1 -8 -6 -17 -11 -15 -11 -16 0
-6 7 6 20 9 27 6 8 -3 14 0 14 7 0 6 4 9 9 5 5 -3 13 0 17 7 4 7 3 10 -1 5 -5
-4 -16 0 -25 8 -15 14 -18 14 -30 0z m17 -10 c0 -8 -4 -12 -9 -9 -5 3 -6 10
-3 15 9 13 12 11 12 -6z"/>
<path d="M5375 3380 c4 -34 3 -40 -5 -25 -7 15 -9 9 -4 -25 4 -33 2 -41 -5
-30 -8 11 -10 6 -5 -20 4 -28 3 -32 -6 -20 -9 12 -10 8 -5 -20 5 -28 4 -32 -5
-20 -10 12 -11 11 -7 -7 3 -13 2 -23 -2 -23 -10 0 -34 -80 -27 -88 3 -3 6 1 6
9 1 8 7 28 15 44 13 26 14 26 9 5 -10 -44 -26 -80 -34 -75 -5 3 -13 -9 -19
-27 -15 -42 -12 -50 4 -13 8 17 14 25 15 18 0 -19 -22 -63 -30 -58 -11 7 -33
-52 -24 -66 4 -7 3 -10 -3 -6 -13 8 -26 -20 -16 -35 3 -6 2 -8 -4 -5 -5 3 -17
-9 -26 -28 -9 -19 -34 -63 -55 -99 -28 -45 -37 -68 -30 -77 8 -11 9 -10 4 3
-3 10 -1 20 4 23 6 4 10 1 10 -6 0 -7 6 -4 14 7 9 12 11 21 4 25 -5 3 -2 10 9
14 26 12 64 15 58 5 -3 -5 -2 -11 3 -14 11 -7 8 51 -3 61 -4 5 -5 3 -2 -3 3
-6 0 -11 -8 -11 -11 0 -12 4 -4 14 6 7 15 11 19 8 5 -3 12 0 15 6 4 5 14 8 22
4 12 -4 13 -2 5 7 -7 9 -6 16 3 25 7 6 16 10 19 7 3 -2 4 -1 1 3 -3 3 1 13 9
22 8 9 16 27 18 41 1 14 10 30 18 37 8 7 11 13 6 13 -5 0 -2 8 5 18 13 15 12
16 -3 3 -10 -7 -15 -17 -12 -22 3 -5 0 -9 -5 -9 -14 0 -14 16 0 41 5 11 15 16
21 13 7 -4 8 -3 4 4 -4 7 -1 12 6 12 9 0 9 3 -2 10 -13 8 -8 13 10 12 3 0 5
17 4 39 0 22 5 51 13 66 7 14 11 28 8 31 -3 3 -5 -1 -5 -9 0 -12 -2 -11 -11 1
-9 12 -10 11 -4 -5 5 -16 4 -17 -6 -8 -10 10 -9 17 5 32 10 11 16 27 13 34 -3
8 0 20 6 26 6 6 7 11 2 11 -4 0 0 10 11 22 10 12 15 19 9 16 -6 -4 -9 15 -8
50 2 39 0 51 -6 37 l-8 -20 -6 20 c-3 11 -4 0 -2 -25z m-214 -613 c-10 -9 -11
-8 -5 6 3 10 9 15 12 12 3 -3 0 -11 -7 -18z"/>
<path d="M5683 3376 c4 -5 0 -20 -9 -34 -11 -17 -12 -22 -3 -16 8 5 20 9 27
10 23 4 23 10 0 30 -13 10 -20 15 -15 10z"/>
<path d="M5670 3200 c0 -5 5 -10 10 -10 6 0 10 5 10 10 0 6 -4 10 -10 10 -5 0
-10 -4 -10 -10z"/>
<path d="M5375 3141 c-3 -5 -2 -12 3 -15 5 -3 9 1 9 9 0 17 -3 19 -12 6z"/>
<path d="M2439 3083 l-24 -28 28 24 c25 23 32 31 24 31 -2 0 -14 -12 -28 -27z"/>
<path d="M4814 2875 c-6 -15 6 -27 125 -122 67 -54 91 -64 91 -40 0 19 -36 50
-49 43 -5 -4 -13 -1 -17 5 -5 8 -2 10 7 4 8 -4 -2 6 -21 23 -19 17 -41 29 -48
27 -7 -3 -11 -1 -8 4 5 8 -57 71 -69 71 -3 0 -8 -7 -11 -15z"/>
<path d="M1448 2653 c7 -3 16 -2 19 1 4 3 -2 6 -13 5 -11 0 -14 -3 -6 -6z"/>
<path d="M4922 2457 c-28 -29 -31 -36 -18 -46 12 -10 14 -9 11 6 -3 22 14 45
27 37 5 -3 4 -13 -4 -22 -11 -15 -11 -15 3 -5 9 7 19 10 23 6 4 -4 4 0 1 9 -4
9 0 18 9 21 20 8 22 -22 4 -43 -11 -12 -10 -12 5 -1 23 18 22 48 -2 61 -26 13
-23 15 -59 -23z"/>
<path d="M4986 2405 c-11 -8 -15 -15 -9 -15 6 0 16 7 23 15 16 19 11 19 -14 0z"/>
<path d="M4860 2381 c0 -5 8 -15 18 -22 15 -12 16 -12 5 2 -7 9 -10 19 -6 22
3 4 1 7 -5 7 -7 0 -12 -4 -12 -9z"/>
<path d="M4916 2381 c-3 -5 2 -15 12 -22 15 -12 16 -12 5 2 -7 9 -10 19 -6 22
3 4 4 7 0 7 -3 0 -8 -4 -11 -9z"/>
<path d="M4322 2362 c-7 -2 -12 -8 -12 -13 0 -7 105 -172 126 -197 1 -2 9 0
17 5 12 6 2 27 -52 109 -37 55 -73 98 -79 96z"/>
<path d="M4767 2302 l-38 -38 21 -19 c18 -16 20 -17 14 -2 -3 9 -11 17 -17 17
-5 0 -2 9 9 21 17 19 19 19 31 3 7 -10 13 -13 13 -7 0 7 -5 15 -11 18 -7 5 -4
14 7 26 31 34 9 20 -29 -19z"/>
<path d="M5101 2316 c-8 -9 -8 -16 -2 -20 5 -4 12 -2 16 4 4 6 12 7 18 3 7 -4
6 0 -2 10 -16 21 -16 20 -30 3z"/>
<path d="M4690 2235 c-10 -12 -9 -16 5 -21 15 -6 15 -9 -6 -20 -30 -15 -44 -8
-27 14 12 15 11 16 -5 3 -16 -13 -16 -15 -1 -32 10 -11 14 -22 11 -26 -4 -3
-7 -1 -7 6 0 8 -9 6 -25 -6 -23 -17 -36 -41 -15 -28 6 4 18 1 27 -7 9 -7 14
-8 10 -2 -8 14 16 36 34 32 8 -2 13 3 11 10 -1 7 3 22 9 33 7 14 7 24 0 33 -6
7 -8 16 -4 19 3 4 4 7 1 7 -3 0 -11 -7 -18 -15z"/>
<path d="M5407 2196 c-3 -8 2 -20 11 -27 14 -11 15 -11 5 0 -6 7 -9 20 -6 27
3 8 3 14 0 14 -3 0 -7 -6 -10 -14z"/>
<path d="M4735 2189 c-4 -6 -5 -12 -2 -15 2 -3 7 2 10 11 7 17 1 20 -8 4z"/>
<path d="M4987 2190 c10 -11 9 -17 -4 -32 -22 -25 -10 -34 19 -14 12 9 17 16
10 16 -7 0 -11 4 -8 9 3 5 -2 15 -12 22 -14 11 -15 11 -5 -1z"/>
<path d="M5325 2180 c-15 -16 -15 -20 -3 -15 9 4 30 -5 49 -21 l34 -26 -32 31
c-36 33 -42 47 -17 37 8 -3 12 -2 9 4 -9 15 -20 12 -40 -10z"/>
<path d="M5029 2181 c11 -7 9 -14 -11 -34 -24 -24 -33 -57 -17 -57 5 0 23 -9
41 -21 18 -12 26 -19 17 -16 -9 3 -22 0 -28 -6 -8 -8 -11 -7 -11 6 0 9 -9 21
-20 27 -11 6 -19 14 -17 18 1 4 -2 8 -8 10 -5 1 -10 -4 -10 -10 -1 -7 -7 -12
-14 -10 -7 1 -10 -2 -7 -7 3 -5 -15 -24 -39 -44 -37 -28 -43 -37 -31 -46 11
-9 15 -8 20 5 4 10 12 14 22 10 14 -5 14 -4 5 7 -9 12 -7 14 13 12 28 -3 54
19 36 30 -15 9 -12 22 5 22 8 0 17 -9 21 -19 5 -16 16 -22 37 -19 4 0 7 -4 7
-11 0 -6 13 3 30 22 16 18 27 36 25 40 -7 11 20 31 29 23 4 -4 4 1 0 12 -7 18
-6 19 12 5 17 -14 18 -14 6 2 -8 9 -19 15 -26 12 -7 -3 -24 6 -37 18 -14 13
-34 24 -45 26 -15 2 -16 1 -5 -7z m41 -33 c0 -5 6 -6 13 -2 9 6 9 4 -1 -8 -9
-11 -10 -18 -2 -23 5 -3 10 -1 10 4 0 6 5 11 11 11 8 0 8 -5 -1 -15 -11 -13
-16 -12 -41 6 -16 11 -27 24 -25 28 7 11 36 10 36 -1z m9 -73 c-7 -6 -13 -5
-19 5 -5 8 -10 11 -10 6 0 -5 -9 -1 -20 9 -31 28 -13 36 24 12 22 -14 31 -26
25 -32z m-121 -31 c-4 -11 -28 -14 -28 -4 0 8 22 20 28 14 2 -1 2 -6 0 -10z"/>
<path d="M5047 2139 c7 -7 15 -10 18 -7 3 3 -2 9 -12 12 -14 6 -15 5 -6 -5z"/>
<path d="M5020 2116 c0 -2 8 -10 18 -17 15 -13 16 -12 3 4 -13 16 -21 21 -21
13z"/>
<path d="M4606 2172 c-3 -5 1 -9 9 -9 8 0 12 4 9 9 -3 4 -7 8 -9 8 -2 0 -6 -4
-9 -8z"/>
<path d="M3490 2015 c0 -131 2 -155 15 -155 13 0 15 24 15 155 0 131 -2 155
-15 155 -13 0 -15 -24 -15 -155z"/>
<path d="M4565 2141 c-3 -5 -1 -12 4 -16 6 -3 8 -13 5 -23 -5 -14 -4 -14 4 -2
7 9 7 19 2 26 -6 6 -7 14 -3 17 3 4 4 7 0 7 -3 0 -8 -4 -12 -9z"/>
<path d="M5268 2120 c-23 -22 -23 -23 15 -49 l32 -22 -29 26 c-31 28 -30 43 3
26 15 -8 22 -8 27 1 4 7 3 9 -1 5 -5 -4 -14 1 -19 11 -10 18 -12 18 -28 2z"/>
<path d="M5183 2117 c0 -24 28 -30 46 -10 15 16 15 16 -2 3 -15 -11 -19 -10
-31 5 -11 15 -13 15 -13 2z"/>
<path d="M5341 2114 c6 -7 16 -11 21 -8 11 7 3 17 -18 20 -12 2 -13 -1 -3 -12z"/>
<path d="M5149 2103 c-13 -16 -12 -17 4 -4 9 7 17 15 17 17 0 8 -8 3 -21 -13z"/>
<path d="M5113 2085 c0 -8 4 -12 9 -9 5 3 6 10 3 15 -9 13 -12 11 -12 -6z"/>
<path d="M4447 2066 c-55 -34 -60 -44 -6 -13 26 14 50 23 54 19 5 -4 5 -1 1 6
-9 15 -4 16 -49 -12z"/>
<path d="M4855 2070 c-8 -9 -12 -20 -8 -24 4 -4 0 -4 -10 0 -9 3 -14 11 -10
17 3 6 1 7 -5 3 -9 -5 -9 -13 -1 -28 6 -11 7 -18 1 -15 -5 4 -20 -6 -33 -21
-13 -14 -17 -21 -8 -14 9 6 20 8 24 4 5 -4 5 -1 0 7 -5 9 -3 12 5 9 13 -4 20
1 68 54 17 19 19 25 7 25 -8 0 -22 -8 -30 -17z"/>
<path d="M5215 2071 c-3 -5 -2 -12 3 -15 5 -3 9 1 9 9 0 17 -3 19 -12 6z"/>
<path d="M5098 2043 c10 -4 10 -8 0 -21 -12 -14 -11 -14 9 -1 16 9 19 16 10
21 -7 4 -16 7 -22 7 -5 0 -4 -3 3 -6z"/>
<path d="M3025 2030 c3 -5 11 -10 16 -10 6 0 7 5 4 10 -3 6 -11 10 -16 10 -6
0 -7 -4 -4 -10z"/>
<path d="M4357 2014 c-32 -17 -33 -19 -7 -21 11 -1 18 2 15 8 -4 5 -2 9 3 9 6
0 13 -7 16 -16 3 -8 2 -12 -4 -9 -6 3 -10 1 -10 -5 0 -6 -5 -8 -12 -4 -7 5 -8
3 -3 -6 6 -10 4 -12 -8 -7 -9 3 -19 2 -22 -4 -4 -5 -12 -6 -18 -2 -7 4 -6 0 2
-10 12 -15 10 -17 -16 -14 -22 3 -29 0 -29 -13 0 -10 6 -16 13 -13 7 3 13 8
13 12 0 10 31 7 50 -4 10 -5 9 -1 -3 12 -12 14 -15 23 -8 28 6 3 11 1 11 -6 0
-8 4 -8 16 2 13 10 17 10 25 -2 8 -13 10 -12 13 11 0 5 7 15 13 21 10 10 12 8
9 -8 -3 -12 1 -20 10 -20 9 0 11 4 5 10 -5 5 -7 16 -4 23 4 12 8 12 22 2 15
-12 15 -11 1 6 -14 18 -13 19 3 13 11 -4 16 -3 12 3 -6 10 -40 8 -51 -3 -11
-10 -26 -8 -19 2 10 17 -10 19 -38 5z"/>
<path d="M4980 2022 c0 -5 7 -9 15 -9 8 0 12 4 9 9 -3 4 -9 8 -15 8 -5 0 -9
-4 -9 -8z"/>
<path d="M5023 1985 c0 -8 4 -12 9 -9 5 3 6 10 3 15 -9 13 -12 11 -12 -6z"/>
<path d="M4834 1968 l-19 -23 23 19 c12 11 22 21 22 23 0 8 -8 2 -26 -19z"/>
<path d="M4250 1960 c-8 -5 -10 -10 -5 -10 6 0 17 5 25 10 8 5 11 10 5 10 -5
0 -17 -5 -25 -10z"/>
<path d="M4210 1940 c-9 -6 -10 -10 -3 -10 6 0 15 5 18 10 8 12 4 12 -15 0z"/>
<path d="M4161 1921 c-7 -5 -9 -11 -5 -14 5 -3 15 1 22 9 14 16 5 18 -17 5z"/>
<path d="M4226 1908 c3 -4 9 -8 15 -8 5 0 9 4 9 8 0 5 -7 9 -15 9 -8 0 -12 -4
-9 -9z"/>
<path d="M4360 1890 c-19 -11 -31 -19 -27 -20 11 0 67 29 67 35 0 7 -1 7 -40
-15z"/>
<path d="M6086 1889 c-10 -12 -15 -23 -12 -26 7 -7 -31 -62 -59 -85 -11 -10
-16 -17 -12 -18 12 0 -14 -25 -43 -40 l-25 -13 34 -14 c30 -13 37 -12 80 9 35
18 51 34 69 70 20 40 22 51 12 87 -13 50 -22 56 -44 30z"/>
<path d="M4205 1890 c-3 -5 -1 -10 4 -10 6 0 11 5 11 10 0 6 -2 10 -4 10 -3 0
-8 -4 -11 -10z"/>
<path d="M4134 1857 c-5 -16 -8 -17 -15 -6 -7 12 -11 12 -23 -1 -13 -13 -13
-17 1 -29 13 -12 14 -11 8 10 -7 21 -6 22 8 10 14 -11 18 -11 23 3 4 10 13 15
21 12 9 -4 11 -2 7 6 -5 8 -2 9 10 5 9 -4 15 -3 11 2 -10 16 -45 8 -51 -12z"/>
<path d="M3955 1850 c-13 -5 -14 -9 -5 -9 8 0 24 4 35 9 13 5 14 9 5 9 -8 0
-24 -4 -35 -9z"/>
<path d="M3908 1833 c7 -3 16 -2 19 1 4 3 -2 6 -13 5 -11 0 -14 -3 -6 -6z"/>
<path d="M4026 1827 c-16 -12 -16 -13 2 -13 10 0 19 6 19 13 0 7 -1 13 -2 13
-1 0 -9 -6 -19 -13z"/>
<path d="M3868 1823 c7 -3 16 -2 19 1 4 3 -2 6 -13 5 -11 0 -14 -3 -6 -6z"/>
<path d="M3808 1813 c6 -2 18 -2 25 0 6 3 1 5 -13 5 -14 0 -19 -2 -12 -5z"/>
<path d="M3758 1803 c7 -3 16 -2 19 1 4 3 -2 6 -13 5 -11 0 -14 -3 -6 -6z"/>
<path d="M3698 1793 c7 -3 16 -2 19 1 4 3 -2 6 -13 5 -11 0 -14 -3 -6 -6z"/>
<path d="M4050 1763 c-41 -13 -115 -35 -165 -48 -87 -23 -88 -24 -32 -19 32 3
68 8 80 11 12 3 30 5 40 5 9 -1 17 4 17 9 0 6 5 7 10 4 6 -3 10 -2 10 3 0 5
14 9 31 9 17 0 35 6 40 14 5 8 9 10 9 4 0 -6 3 -6 8 1 4 6 16 16 27 22 30 17
8 13 -75 -15z"/>
<path d="M3383 1773 c26 -2 67 -2 90 0 23 2 2 3 -48 3 -49 0 -68 -1 -42 -3z"/>
<path d="M3268 1693 c7 -3 16 -2 19 1 4 3 -2 6 -13 5 -11 0 -14 -3 -6 -6z"/>
<path d="M3221 1676 c-10 -12 -8 -13 8 -9 12 3 18 9 15 14 -7 12 -10 11 -23
-5z"/>
<path d="M3159 1583 c-55 -85 -56 -87 -31 -72 12 7 18 17 15 23 -3 5 -1 6 6 2
6 -4 9 -12 6 -17 -4 -5 -2 -9 4 -9 5 0 14 7 19 17 8 14 11 13 17 -7 6 -18 9
-20 16 -9 11 17 12 59 2 59 -5 0 -14 4 -21 9 -12 7 -11 14 2 40 27 52 11 35
-35 -36z m49 -49 c-3 -14 -5 -12 -10 9 -3 19 -2 25 4 19 6 -6 8 -18 6 -28z"/>
<path d="M3250 1535 c0 -14 2 -25 4 -25 2 0 6 11 8 25 3 14 1 25 -3 25 -5 0
-9 -11 -9 -25z"/>
<path d="M3125 1501 c-3 -6 -10 -9 -14 -6 -5 2 -16 -4 -26 -15 -10 -12 -13
-20 -7 -20 7 0 12 4 12 10 0 5 6 7 13 4 14 -5 44 22 34 32 -3 3 -8 0 -12 -5z"/>
<path d="M5525 1251 c-3 -5 -2 -12 3 -15 5 -3 9 1 9 9 0 17 -3 19 -12 6z"/>
<path d="M5304 1025 c-4 -18 -13 -25 -31 -25 -35 0 -27 -34 9 -38 32 -4 63 35
53 68 -9 27 -23 25 -31 -5z"/>
</g>
</svg>
